<svg width="60" height="60" viewBox="0 0 60 60" fill="none" xmlns="http://www.w3.org/2000/svg">
<path d="M47.3939 21.9717C47.3941 22.0114 47.4002 22.05 47.4002 22.0899C47.4002 34.3028 36.7555 44.2383 23.6698 44.2383H16.9375C19.7546 51.6945 27.3634 57.0001 36.326 57.0001H55.4159C56.0663 57.0001 56.6503 56.6015 56.8882 55.9959C57.1262 55.3903 56.9686 54.7013 56.4911 54.2579L52.1637 50.2441C55.2938 46.825 56.9979 42.4354 56.9979 37.9102C56.9979 31.3546 53.1928 25.4096 47.3939 21.9717Z" fill="white"/>
<path d="M3.50678 38.3319C3.27356 38.5481 3.11091 38.8295 3.04002 39.1395C2.96913 39.4495 2.9933 39.7737 3.10938 40.0697C3.22546 40.3657 3.42806 40.6199 3.69075 40.7991C3.95345 40.9783 4.26404 41.0742 4.58203 41.0742H23.6719C35.0119 41.0742 44.2383 32.5585 44.2383 22.0898C44.2383 11.6212 35.0119 3 23.6719 3C12.3319 3 3 11.6212 3 22.0898C3 26.615 4.70406 30.8991 7.83416 34.3181L3.50678 38.3319ZM14.1797 12.5977H33.1641C34.0385 12.5977 34.7461 13.3052 34.7461 14.1797C34.7461 15.0541 34.0385 15.7617 33.1641 15.7617H14.1797C13.3052 15.7617 12.5977 15.0541 12.5977 14.1797C12.5977 13.3052 13.3052 12.5977 14.1797 12.5977ZM14.1797 18.9258H33.1641C34.0385 18.9258 34.7461 19.6334 34.7461 20.5078C34.7461 21.3823 34.0385 22.0898 33.1641 22.0898H14.1797C13.3052 22.0898 12.5977 21.3823 12.5977 20.5078C12.5977 19.6334 13.3052 18.9258 14.1797 18.9258ZM14.1797 25.2539H33.1641C34.0385 25.2539 34.7461 25.9615 34.7461 26.8359C34.7461 27.7104 34.0385 28.418 33.1641 28.418H14.1797C13.3052 28.418 12.5977 27.7104 12.5977 26.8359C12.5977 25.9615 13.3052 25.2539 14.1797 25.2539Z" fill="white"/>
</svg>
