<svg width="50" height="50" viewBox="0 0 50 50" fill="none" xmlns="http://www.w3.org/2000/svg">
<path d="M35.0219 20.1984C35.3801 19.4598 35.8812 18.7994 36.4962 18.2555C37.1111 17.7117 37.8278 17.295 38.6047 17.0297C39.256 16.8131 39.9386 16.7054 40.625 16.7109V7.8125C40.625 5.22812 38.5219 3.125 35.9375 3.125H10.9375C8.35312 3.125 6.25 5.22812 6.25 7.8125V39.0625C6.25 41.6469 8.35312 43.75 10.9375 43.75H26.4828L26.3141 43.2594C25.9773 42.2885 25.8366 41.2604 25.9002 40.2347C25.9638 39.2091 26.2303 38.2062 26.6844 37.2844L35.0219 20.1984ZM12.5 12.5H31.25C31.6644 12.5 32.0618 12.6646 32.3549 12.9576C32.6479 13.2507 32.8125 13.6481 32.8125 14.0625C32.8125 14.4769 32.6479 14.8743 32.3549 15.1674C32.0618 15.4604 31.6644 15.625 31.25 15.625H12.5C12.0856 15.625 11.6882 15.4604 11.3951 15.1674C11.1021 14.8743 10.9375 14.4769 10.9375 14.0625C10.9375 13.6481 11.1021 13.2507 11.3951 12.9576C11.6882 12.6646 12.0856 12.5 12.5 12.5ZM12.5 18.75H29.6875C30.1019 18.75 30.4993 18.9146 30.7924 19.2076C31.0854 19.5007 31.25 19.8981 31.25 20.3125C31.25 20.7269 31.0854 21.1243 30.7924 21.4174C30.4993 21.7104 30.1019 21.875 29.6875 21.875H12.5C12.0856 21.875 11.6882 21.7104 11.3951 21.4174C11.1021 21.1243 10.9375 20.7269 10.9375 20.3125C10.9375 19.8981 11.1021 19.5007 11.3951 19.2076C11.6882 18.9146 12.0856 18.75 12.5 18.75ZM23.4375 34.375H12.5C12.0856 34.375 11.6882 34.2104 11.3951 33.9174C11.1021 33.6243 10.9375 33.2269 10.9375 32.8125C10.9375 32.3981 11.1021 32.0007 11.3951 31.7076C11.6882 31.4146 12.0856 31.25 12.5 31.25H23.4375C23.8519 31.25 24.2493 31.4146 24.5424 31.7076C24.8354 32.0007 25 32.3981 25 32.8125C25 33.2269 24.8354 33.6243 24.5424 33.9174C24.2493 34.2104 23.8519 34.375 23.4375 34.375ZM12.5 28.125C12.0856 28.125 11.6882 27.9604 11.3951 27.6674C11.1021 27.3743 10.9375 26.9769 10.9375 26.5625C10.9375 26.1481 11.1021 25.7507 11.3951 25.4576C11.6882 25.1646 12.0856 25 12.5 25H26.5625C26.9769 25 27.3743 25.1646 27.6674 25.4576C27.9604 25.7507 28.125 26.1481 28.125 26.5625C28.125 26.9769 27.9604 27.3743 27.6674 27.6674C27.3743 27.9604 26.9769 28.125 26.5625 28.125H12.5ZM46.2562 25.6797L37.9156 42.7719C37.6466 43.326 37.2705 43.8213 36.8089 44.2292C36.3474 44.6372 35.8096 44.9496 35.2266 45.1484L32.2719 46.1641C31.8803 46.2984 31.4513 46.2719 31.0792 46.0903C30.7072 45.9086 30.4224 45.5867 30.2875 45.1953L29.2703 42.2406C29.0683 41.6585 28.9839 41.042 29.022 40.427C29.0601 39.8119 29.2199 39.2106 29.4922 38.6578L37.8328 21.5687C38.1969 20.8187 38.8344 20.2562 39.6234 19.9844C40.0109 19.8491 40.4215 19.7924 40.8312 19.8177C41.2409 19.8429 41.6414 19.9495 42.0094 20.1312L44.8187 21.5016C45.5687 21.8672 46.1312 22.5047 46.4031 23.2937C46.675 24.0828 46.6234 24.9297 46.2562 25.6797Z" fill="white"/>
</svg>
