<svg width="50" height="50" viewBox="0 0 50 50" fill="none" xmlns="http://www.w3.org/2000/svg">
<path d="M15.1541 23.4779C15.1541 29.3908 19.9474 34.1842 25.8605 34.1842C31.7735 34.1842 36.5667 29.3908 36.5667 23.4779C36.5667 17.5649 31.7734 12.7715 25.8605 12.7715C19.9504 12.7782 15.1607 17.5678 15.1541 23.4779ZM25.8605 24.1544C24.0838 24.1644 22.5783 22.8486 22.351 21.0863C22.1237 19.3247 23.2458 17.6692 24.9669 17.2283V16.3232C24.9669 15.9133 25.299 15.5812 25.7089 15.5812C26.1188 15.5812 26.4508 15.9133 26.4508 16.3232V17.1831C28.1344 17.4681 29.3632 18.9316 29.3525 20.6396C29.3525 20.8341 29.2752 21.0206 29.1377 21.1581C29.0002 21.2957 28.8137 21.3729 28.6192 21.3729C28.4247 21.3729 28.2382 21.2957 28.1007 21.1581C27.9632 21.0206 27.8859 20.8341 27.8859 20.6396C27.8846 19.5187 26.9754 18.6112 25.8546 18.6125C24.7338 18.6137 23.8262 19.5233 23.8279 20.6442C23.8292 21.7646 24.7388 22.6721 25.8596 22.6705C27.6768 22.6808 29.186 24.0754 29.3396 25.8864C29.4933 27.697 28.2404 29.3258 26.4508 29.6421V30.5265C26.4508 30.9364 26.1188 31.2685 25.7089 31.2685C25.299 31.2685 24.9669 30.9364 24.9669 30.5265V29.5966C23.4163 29.1871 22.3327 27.7893 22.3223 26.1857C22.327 25.9897 22.4081 25.8033 22.5484 25.6663C22.6887 25.5294 22.8769 25.4527 23.073 25.4527C23.2691 25.4527 23.4573 25.5294 23.5976 25.6663C23.7379 25.8033 23.819 25.9897 23.8237 26.1857C23.8262 27.222 24.6071 28.0911 25.6372 28.2042C25.6756 28.1981 25.7143 28.1949 25.7532 28.1946C25.809 28.1946 25.8645 28.2012 25.9192 28.2137C27.0321 28.1864 27.9153 27.268 27.8992 26.1551C27.883 25.0417 26.9734 24.1494 25.8605 24.1544ZM43.0428 39.2889C43.037 39.292 43.0312 39.2949 43.0254 39.2976L36.1378 42.5516C36.2119 42.9329 36.2441 43.3208 36.2339 43.7092C36.2287 43.9023 36.1483 44.0858 36.0099 44.2206C35.8715 44.3554 35.6859 44.4309 35.4927 44.4309H35.4715L25.3913 44.1534C25.1972 44.1443 25.0144 44.0593 24.8822 43.9169C24.75 43.7744 24.6789 43.5858 24.6842 43.3916C24.6896 43.1973 24.7708 43.0129 24.9106 42.8779C25.0504 42.7429 25.2376 42.668 25.4319 42.6695L34.6978 42.9246C34.3905 41.1289 32.8594 39.799 31.0384 39.746L24.9065 39.5774C23.6956 39.5427 22.508 39.2359 21.4318 38.6799L20.8079 38.3569C17.7436 36.7603 14.0511 36.9681 11.1855 38.8988L10.94 47.8194L11.9937 47.2551C13.041 46.6919 14.2661 46.5578 15.4104 46.8812L25.817 49.8022C27.8227 50.2131 29.907 49.9802 31.7725 49.1366L46.1899 39.8106C45.7891 39.4002 45.2678 39.1282 44.7018 39.0344C44.1358 38.9406 43.5546 39.0297 43.0428 39.2889ZM4.16797 49.3688L4.53344 36.0965L9.77435 36.241L9.40867 49.5132L4.16797 49.3688ZM26.5568 8.79757V0.741964C26.5568 0.332082 26.2248 0 25.8149 0C25.405 0 25.0729 0.332082 25.0729 0.741964V8.79757C25.0729 9.20746 25.405 9.53954 25.8149 9.53954C26.2248 9.53954 26.5568 9.20746 26.5568 8.79757ZM32.9165 8.79757V4.98176C32.9165 4.57188 32.5844 4.23979 32.1746 4.23979C31.7647 4.23979 31.4326 4.57188 31.4326 4.98176V8.79757C31.4326 9.20746 31.7647 9.53954 32.1746 9.53954C32.5844 9.53954 32.9165 9.20746 32.9165 8.79757ZM20.1971 8.79757V4.98176C20.1971 4.57188 19.8651 4.23979 19.4552 4.23979C19.0453 4.23979 18.7132 4.57188 18.7132 4.98176V8.79757C18.7132 9.20746 19.0453 9.53954 19.4552 9.53954C19.8651 9.53954 20.1971 9.20746 20.1971 8.79757Z" fill="white"/>
</svg>
