<svg width="54" height="44" viewBox="0 0 54 44" fill="none" xmlns="http://www.w3.org/2000/svg">
<path d="M40.0807 30.32C39.6651 27.4963 38.2512 24.915 36.0954 23.0445C33.9396 21.1741 31.1848 20.1382 28.3307 20.125H25.6707C22.8166 20.1382 20.0617 21.1741 17.9059 23.0445C15.7502 24.915 14.3362 27.4963 13.9207 30.32L12.6457 39.235C12.6049 39.5232 12.6318 39.8169 12.7243 40.0928C12.8167 40.3688 12.9721 40.6195 13.1782 40.825C13.6782 41.325 16.7457 43.875 27.0032 43.875C37.2607 43.875 40.3207 41.335 40.8282 40.825C41.0342 40.6195 41.1896 40.3688 41.2821 40.0928C41.3745 39.8169 41.4014 39.5232 41.3607 39.235L40.0807 30.32ZM15.8982 21.5C13.482 23.7274 11.9099 26.7214 11.4482 29.975L10.5232 36.375C3.09817 36.325 0.848167 33.625 0.473167 33.075C0.328212 32.8752 0.22477 32.6484 0.168949 32.4079C0.113129 32.1674 0.106062 31.9182 0.148167 31.675L0.698167 28.575C0.984723 26.9549 1.65772 25.4277 2.6601 24.1231C3.66248 22.8184 4.96468 21.7747 6.45629 21.0804C7.94789 20.3861 9.58492 20.0617 11.2286 20.1348C12.8722 20.2078 14.474 20.6761 15.8982 21.5ZM53.8482 31.675C53.8903 31.9182 53.8832 32.1674 53.8274 32.4079C53.7716 32.6484 53.6681 32.8752 53.5232 33.075C53.1482 33.625 50.8982 36.325 43.4732 36.375L42.5482 29.975C42.0864 26.7214 40.5143 23.7274 38.0982 21.5C39.5223 20.6761 41.1241 20.2078 42.7678 20.1348C44.4114 20.0617 46.0484 20.3861 47.5401 21.0804C49.0317 21.7747 50.3339 22.8184 51.3362 24.1231C52.3386 25.4277 53.0116 26.9549 53.2982 28.575L53.8482 31.675ZM16.3232 16C15.6939 16.8925 14.8584 17.6199 13.8878 18.1204C12.9173 18.621 11.8402 18.8798 10.7482 18.875C9.65881 18.875 8.58505 18.6161 7.61536 18.1197C6.64568 17.6233 5.80784 16.9036 5.17088 16.0199C4.53392 15.1362 4.11608 14.1137 3.9518 13.0368C3.78751 11.9599 3.88148 10.8594 4.22597 9.82594C4.57045 8.79248 5.15559 7.85568 5.93316 7.09273C6.71072 6.32979 7.65846 5.76253 8.69827 5.43772C9.73807 5.11291 10.8402 5.03984 11.9138 5.22453C12.9874 5.40922 14.0017 5.84639 14.8732 6.5C14.6225 7.48026 14.4965 8.48821 14.4982 9.5C14.5001 11.7929 15.1313 14.0412 16.3232 16ZM50.1232 12C50.1238 12.903 49.9464 13.7973 49.6012 14.6317C49.2559 15.4661 48.7495 16.2243 48.111 16.8628C47.4725 17.5014 46.7143 18.0077 45.8799 18.353C45.0455 18.6983 44.1512 18.8757 43.2482 18.875C42.1561 18.8798 41.0791 18.621 40.1085 18.1204C39.1379 17.6199 38.3025 16.8925 37.6732 16C38.865 14.0412 39.4963 11.7929 39.4982 9.5C39.4998 8.48821 39.3738 7.48026 39.1232 6.5C40.1446 5.73394 41.3591 5.26744 42.6308 5.15278C43.9024 5.03812 45.1808 5.27983 46.3228 5.85082C47.4647 6.42181 48.4252 7.29952 49.0964 8.3856C49.7676 9.47169 50.1232 10.7232 50.1232 12Z" fill="white"/>
<path d="M27 18.875C32.1777 18.875 36.375 14.6777 36.375 9.5C36.375 4.32233 32.1777 0.125 27 0.125C21.8223 0.125 17.625 4.32233 17.625 9.5C17.625 14.6777 21.8223 18.875 27 18.875Z" fill="white"/>
</svg>
