<svg width="50" height="50" viewBox="0 0 50 50" fill="none" xmlns="http://www.w3.org/2000/svg">
<path d="M31.8744 23.1641H39.6967C48.3783 22.9981 50.4779 11.3379 42.5971 8.05666C34.9017 5.10744 28.515 14.2871 33.7885 20.459C33.1537 21.3574 32.5092 22.2656 31.8744 23.1641ZM43.2709 13.9063C45.1557 13.9551 45.1557 16.7188 43.2709 16.7676C41.3764 16.7188 41.3764 13.9551 43.2709 13.9063ZM39.7064 13.9063C41.5912 13.9551 41.5912 16.7188 39.7064 16.7676C37.8119 16.7188 37.8119 13.9551 39.7064 13.9063ZM36.1322 13.9063C38.017 13.9551 38.017 16.7188 36.1322 16.7676C34.2475 16.7188 34.2475 13.9551 36.1322 13.9063ZM9.82363 21.9141H19.5795C18.7885 20.791 17.9877 19.668 17.1967 18.5449C23.808 10.8594 15.7514 -0.634745 6.20058 3.06643C-3.6334 7.11916 -0.98692 21.7383 9.82363 21.9141ZM14.2768 10.4981C16.4545 10.5567 16.4545 13.7403 14.2768 13.7988C12.099 13.7305 12.099 10.5567 14.2768 10.4981ZM9.82363 10.4981C12.0014 10.5567 12.0014 13.7403 9.82363 13.7988C7.65566 13.7403 7.64589 10.5469 9.82363 10.4981ZM5.3705 10.4981C7.53847 10.5567 7.53847 13.7403 5.3705 13.7988C3.19277 13.7305 3.19277 10.5567 5.3705 10.4981ZM37.6166 44.4043C37.6166 46.1914 36.1713 47.6367 34.3842 47.6367H16.0541C14.267 47.6367 12.8217 46.1914 12.8217 44.4043V42.5488C12.8217 37.5684 16.474 33.3692 21.3373 32.627C23.3685 34.5508 27.0795 34.5508 29.101 32.627C33.974 33.3692 37.6166 37.5684 37.6166 42.5488V44.4043ZM25.2143 21.5625C27.9779 21.5625 30.224 23.8086 30.224 26.5723C30.2826 30.8301 25.0189 33.1641 21.9135 30.3321C18.476 27.3731 20.6146 21.5332 25.2143 21.5625ZM13.2611 47.6465H3.183C1.70839 47.6465 0.526751 46.4551 0.526751 44.9903V43.4571C0.526751 39.3164 3.56386 35.8887 7.5287 35.293C9.18886 36.8848 12.2553 36.8848 13.9154 35.293C14.0814 35.3223 14.2377 35.3516 14.3939 35.3906C12.6947 37.3926 11.7572 39.9121 11.7572 42.5586V44.4141C11.7768 45.7031 12.3529 46.8653 13.2611 47.6465ZM10.7318 26.1817C13.0072 26.1817 14.8529 28.0274 14.8529 30.3028C14.9018 33.8086 10.5756 35.7324 8.01698 33.3985C5.18495 30.9668 6.94277 26.1621 10.7318 26.1817ZM49.9017 43.4571V44.9903C49.9017 46.4649 48.7103 47.6465 47.2357 47.6465H37.1674C38.0756 46.8653 38.6517 45.7031 38.6517 44.4141V42.5586C38.6517 39.9121 37.7142 37.3828 36.015 35.3809C36.1713 35.3516 36.3373 35.3125 36.4935 35.293C38.1635 36.8848 41.2201 36.8848 42.8803 35.293C46.8646 35.8985 49.9017 39.3164 49.9017 43.4571ZM39.6967 26.1817C41.9721 26.1817 43.8178 28.0274 43.8178 30.3028C43.8666 33.8086 39.5404 35.7324 36.9818 33.3985C34.1596 30.9668 35.9174 26.1621 39.6967 26.1817Z" fill="white"/>
</svg>
