<svg width="50" height="50" viewBox="0 0 50 50" fill="none" xmlns="http://www.w3.org/2000/svg">
<path d="M39.7381 27.4357C42.0033 27.4357 43.8395 25.5994 43.8395 23.3343C43.8395 21.0692 42.0033 19.2329 39.7381 19.2329C37.473 19.2329 35.6367 21.0692 35.6367 23.3343C35.6367 25.5994 37.473 27.4357 39.7381 27.4357Z" fill="white"/>
<path d="M6.92561 27.4357C9.19075 27.4357 11.027 25.5994 11.027 23.3343C11.027 21.0692 9.19075 19.2329 6.92561 19.2329C4.66048 19.2329 2.82422 21.0692 2.82422 23.3343C2.82422 25.5994 4.66048 27.4357 6.92561 27.4357Z" fill="white"/>
<path d="M23.3319 43.8412C25.597 43.8412 27.4333 42.005 27.4333 39.7398C27.4333 37.4747 25.597 35.6384 23.3319 35.6384C21.0667 35.6384 19.2305 37.4747 19.2305 39.7398C19.2305 42.005 21.0667 43.8412 23.3319 43.8412Z" fill="white"/>
<path d="M23.3319 11.0299C25.597 11.0299 27.4333 9.19368 27.4333 6.92854C27.4333 4.66341 25.597 2.82715 23.3319 2.82715C21.0667 2.82715 19.2305 4.66341 19.2305 6.92854C19.2305 9.19368 21.0667 11.0299 23.3319 11.0299Z" fill="white"/>
<path d="M14.4609 3.84071C13.9963 2.21592 13.7306 1.07008 13.7213 1.038C13.541 0.315695 12.8134 -0.132906 12.0952 0.0353418C11.3716 0.198213 10.9096 0.90985 11.0551 1.63744C11.3293 2.99773 11.9624 5.06064 11.8829 4.78394C13.258 9.58029 15.8684 13.9368 19.3965 17.465L23.3326 21.4011L27.2688 17.465C30.7969 13.9369 33.4072 9.58029 34.7822 4.78394C34.8617 4.50641 35.332 3.0166 35.6101 1.63744C35.7556 0.90985 35.2936 0.198213 34.5701 0.0353418C33.8438 -0.131539 33.1242 0.315695 32.9439 1.038C32.9345 1.07008 32.6702 2.21327 32.2069 3.83269C31.0201 7.52157 28.2778 13.7644 23.3326 13.7644C18.3901 13.7643 15.6505 7.5295 14.4609 3.84071ZM25.2658 23.3343L29.202 27.2704C32.7301 30.7985 37.0867 33.4088 41.883 34.7838C42.1606 34.8634 43.6504 35.3337 45.0295 35.6117C45.7571 35.7666 46.4688 35.2967 46.6316 34.5717C46.7945 33.8468 46.3499 33.1245 45.629 32.9456C45.5969 32.9362 44.5448 32.6719 42.9254 32.2086C39.2365 31.0217 32.9025 28.2795 32.9025 23.3343C32.9025 18.3917 39.2285 15.6522 42.9174 14.4626C44.5422 13.9979 45.5969 13.7323 45.629 13.723C46.3499 13.5427 46.7945 12.8218 46.6316 12.0968C46.4688 11.3719 45.7571 10.9019 45.0295 11.0568C43.6692 11.3309 41.6975 11.9638 41.9742 11.8845C37.1778 13.2597 32.7302 15.8699 29.202 19.3981L25.2658 23.3343ZM0.0335963 34.5717C0.196467 35.2967 0.908105 35.7666 1.63569 35.6117C2.99599 35.3374 5.0589 34.7045 4.78219 34.7838C9.57854 33.4088 13.935 30.7985 17.4632 27.2704L21.3994 23.3343L17.4632 19.3981C13.9351 15.87 9.57854 13.2597 4.78219 11.8845C4.50466 11.805 3.01485 11.3349 1.63569 11.0568C0.908105 10.9019 0.196467 11.3719 0.0335963 12.0968C-0.129275 12.8218 0.315317 13.5441 1.03625 13.723C1.06833 13.7324 2.21153 13.9967 3.83094 14.4599C7.51983 15.6468 13.7627 18.3891 13.7627 23.3343C13.7627 28.2768 7.52785 31.0164 3.83896 32.2059C2.21417 32.6706 1.06833 32.9363 1.03625 32.9456C0.315317 33.1258 -0.129275 33.8468 0.0335963 34.5717ZM32.2043 42.8279C32.6689 44.4527 32.9346 45.5985 32.9439 45.6306C33.1228 46.3529 33.8411 46.7908 34.5701 46.6333C35.2936 46.4704 35.7556 45.7588 35.6101 45.0312C35.5767 44.8657 34.7882 41.905 34.7822 41.8847C33.4072 37.0882 30.7969 32.7318 27.2688 29.2036L23.3326 25.2675L19.3965 29.2036C15.8684 32.7317 13.258 37.0882 11.8829 41.8847C11.8771 41.9049 11.0886 44.8657 11.0551 45.0312C10.9096 45.7588 11.3716 46.4704 12.0952 46.6333C12.8179 46.795 13.5408 46.3546 13.7213 45.6306C13.7307 45.5985 13.995 44.4554 14.4583 42.8359C15.6451 39.1471 18.3874 32.9042 23.3326 32.9042C28.2751 32.9042 31.0147 39.1391 32.2043 42.8279Z" fill="white"/>
</svg>
