<svg width="16" height="30" viewBox="0 0 16 30" fill="none" xmlns="http://www.w3.org/2000/svg">
<g clip-path="url(#clip0_442_187)">
<path d="M16.0005 15.0006C16.0005 10.7058 16.0016 6.41105 16.0005 2.11511C15.9982 1.01295 15.3594 0.204233 14.3524 0.0258226C14.2137 0.00117376 14.0705 0.00117375 13.9296 0.00117375C9.97305 0 6.01653 0 2.06114 0C0.819963 0 0.00160885 0.841582 0.00160885 2.12567C-0.000663757 10.7058 -0.000663757 19.286 0.00160885 27.8661C0.00160885 29.1525 0.817691 29.9953 2.05773 29.9965C6.02334 29.9988 9.98896 29.9988 13.9546 29.9965C15.1764 29.9965 15.9982 29.1479 15.9993 27.8849C16.0016 23.5913 16.0005 19.2965 16.0005 15.0006ZM0.900663 24.6958C0.900663 24.5749 0.900663 24.4716 0.900663 24.3672C0.900663 16.976 0.900663 9.58371 0.900663 2.19257C0.900663 1.33339 1.28597 0.935483 2.11001 0.935483C6.03016 0.935483 9.94918 0.935483 13.8693 0.935483C14.7195 0.935483 15.1014 1.32517 15.1014 2.19844C15.1014 9.58958 15.1014 16.9819 15.1014 24.373C15.1014 24.4775 15.0923 24.5808 15.0878 24.6958H0.900663ZM7.17586 27.1243C7.17359 26.6583 7.55549 26.2604 8.00331 26.2628C8.45341 26.2651 8.82849 26.6618 8.82394 27.129C8.81826 27.5926 8.46023 27.9635 8.01241 27.9706C7.55663 27.9776 7.17927 27.595 7.17586 27.1243Z" fill="black"/>
<path d="M7.99331 17.023C10.1256 17.03 11.8657 15.2365 11.8691 13.024C11.8737 10.808 10.1506 9.01915 8.00808 9.01563C5.86331 9.01211 4.13453 10.7927 4.13112 13.0087C4.12771 15.2236 5.85194 17.0148 7.99217 17.023H7.99331ZM8.56502 13.3186C8.70255 13.1519 8.80257 13.0064 8.92646 12.8878C9.12877 12.6918 9.38451 12.6965 9.55955 12.8796C9.73913 13.0674 9.74595 13.3221 9.55387 13.5346C9.32882 13.7846 9.09354 14.0252 8.85258 14.2588C8.66049 14.4454 8.4309 14.4677 8.24222 14.2776C7.62618 13.659 7.01923 13.0299 6.42138 12.3925C6.2418 12.2012 6.27135 11.9289 6.45661 11.7657C6.64643 11.5979 6.85215 11.5991 7.04879 11.7587C7.12267 11.8186 7.18632 11.8925 7.25224 11.9618C7.67165 12.396 8.09105 12.8303 8.56502 13.321V13.3186Z" fill="black"/>
<path d="M8.01376 3.4027C8.66504 3.4027 9.31631 3.40505 9.96872 3.4027C10.3131 3.40153 10.5029 3.23368 10.5029 2.94141C10.5029 2.64915 10.3143 2.47426 9.971 2.47426C8.65822 2.47074 7.34658 2.47074 6.0338 2.47426C5.6894 2.47426 5.49959 2.64798 5.49845 2.93907C5.49845 3.23133 5.68827 3.40153 6.03039 3.4027C6.69189 3.40505 7.35226 3.4027 8.01376 3.4027Z" fill="black"/>
</g>
<defs>
<clipPath id="clip0_442_187">
<rect width="16" height="30" fill="white" transform="matrix(-1 0 0 1 16 0)"/>
</clipPath>
</defs>
</svg>
