<svg width="50" height="50" viewBox="0 0 50 50" fill="none" xmlns="http://www.w3.org/2000/svg">
<path d="M21.2626 23.3114C26.4318 22.9844 30.3571 18.5288 30.0301 13.3597C29.7031 8.19049 25.2475 4.26516 20.0784 4.59219C14.9092 4.91922 10.9839 9.37477 11.3109 14.5439C11.6379 19.7131 16.0935 23.6384 21.2626 23.3114Z" fill="white"/>
<path d="M23.9702 33.1558C23.9702 29.9132 25.3035 26.9877 27.4523 24.8778C26.7857 24.5542 26.0931 24.2823 25.3747 24.0558C23.9034 24.7506 22.2965 25.1109 20.6694 25.1108C18.9801 25.1108 17.3879 24.7224 15.9511 24.0493C9.60179 26.0557 5 31.9908 5 39.0067V45.6667H36.3711V44.7347C36.1122 44.7541 35.8533 44.7735 35.5944 44.7735C29.1804 44.7735 23.9702 39.5634 23.9702 33.1558Z" fill="white"/>
<path d="M35.5866 23.3308C30.1564 23.3308 25.7617 27.732 25.7617 33.1557C25.7617 38.586 30.1629 42.9806 35.5866 42.9806C41.0169 42.9806 45.4115 38.5795 45.4115 33.1557C45.4115 27.732 41.0104 23.3308 35.5866 23.3308ZM41.3081 32.3596L38.661 34.2819L39.6706 37.3886C39.9489 38.2559 38.9587 38.9743 38.2273 38.4371L35.5802 36.5148L32.933 38.4371C32.1952 38.9743 31.2049 38.2494 31.4897 37.3886L32.4994 34.2819L29.8522 32.3596C29.1144 31.8224 29.4962 30.6574 30.4023 30.6574H33.6708L34.6805 27.5507C34.9588 26.6834 36.1886 26.6834 36.4669 27.5507L37.4765 30.6574H40.745C41.6706 30.6639 42.046 31.8289 41.3081 32.3596Z" fill="white"/>
</svg>
