<svg xmlns="http://www.w3.org/2000/svg" xmlns:xlink="http://www.w3.org/1999/xlink" id="Layer_1" x="0px" y="0px" viewBox="0 0 120 50" style="enable-background:new 0 0 120 50;" xml:space="preserve"><style type="text/css">	.st0{fill:#FFFFFF;}</style><g>	<path class="st0" d="M16.82,11.26c-0.72,0.04-1.28,0.4-1.66,1.07c-0.38,0.67-0.64,1.49-0.78,2.46c-0.14,0.97-0.21,1.89-0.21,2.76  c0,0.06,0,0.57,0,1.53s0,1.49,0,1.57h7.53v1.25h-7.53v15.07c0,0.79,0.22,1.43,0.67,1.92s0.96,0.73,1.54,0.73H6.69  c0.58,0,1.1-0.24,1.54-0.73s0.67-1.13,0.67-1.92V21.91H6.69v-1.25H8.9v-2.29c0-1.86,0.3-3.4,0.9-4.63c0.6-1.22,1.42-2.16,2.47-2.8  c1.05-0.65,2.25-1.02,3.62-1.14c2.46-0.15,4.23,0.22,5.31,1.12c1.08,0.9,1.59,1.94,1.55,3.14c-0.04,1.2-0.5,2.15-1.39,2.88  s-2.05,0.83-3.51,0.33c0.63-0.32,1.04-0.96,1.25-1.92c0.21-0.96,0.14-1.87-0.2-2.73C18.55,11.75,17.86,11.3,16.82,11.26z"></path>	<path class="st0" d="M63.49,38.94c0.33,0.46,0.7,0.69,1.08,0.69c-1.04,0-1.92,0-2.65,0c-0.81,0-1.58-0.15-2.31-0.44  c-0.75-0.31-1.35-0.76-1.81-1.36c-0.47-0.6-0.71-1.35-0.71-2.25c0-0.76,0-2.05-0.01-3.85c-0.01-1.8-0.01-3.26-0.01-4.39  c0-0.47,0-0.76,0-0.88c0-1.39-0.22-2.46-0.65-3.21c-0.43-0.74-0.97-1.23-1.63-1.48s-1.34-0.31-2.06-0.17  c-0.71,0.14-1.36,0.41-1.96,0.81L32.29,37.92c-0.86,0.72-1.83,1.25-2.9,1.58c-2.15,0.58-3.89,0.47-5.21-0.35  c-1.32-0.82-2.12-1.97-2.4-3.46c-0.29-1.5,0.03-2.96,0.96-4.38c0.93-1.42,2.57-2.43,4.92-3.04c0.88-0.2,1.77-0.32,2.69-0.38h2.21  c0.03,0,0.09,0.01,0.19,0.02s0.22,0.03,0.35,0.04c0.12,0.01,0.24,0.02,0.33,0.02c0.08-0.01,0.13-0.04,0.15-0.08l-0.1-1.92  c-0.04-1.14-0.35-2.17-0.94-3.08c-0.58-0.92-1.45-1.45-2.61-1.6c-1.39-0.07-2.38,0.24-2.96,0.94c-0.57,0.69-0.8,1.45-0.69,2.27  c0.12,0.82,0.54,1.38,1.25,1.69c-1.4,0.5-2.55,0.47-3.44-0.1c-0.88-0.57-1.19-1.44-0.94-2.61c0.4-1.31,1.34-2.28,2.81-2.92  c1.47-0.62,3.1-0.87,4.88-0.73c2.25,0.18,4.05,0.82,5.4,1.92c1.36,1.08,2.21,2.63,2.54,4.63c0.17,1.21,0.24,2.43,0.21,3.67v0.67  l4.88-3.98V25c0-1.14-0.19-1.91-0.56-2.31c-0.36-0.39-0.9-0.58-1.6-0.58l7.44-1.9v1.83c1.04-0.97,2.29-1.55,3.75-1.73  c1.47-0.19,2.93-0.01,4.36,0.54c1.45,0.54,2.65,1.42,3.61,2.65c0.96,1.24,1.46,2.79,1.5,4.65v0.02v7.42c0,0.51,0.1,1.09,0.29,1.73  C62.87,37.94,63.14,38.48,63.49,38.94z M30.85,36.98c1.19-0.33,2.15-1.02,2.88-2.06l-0.08-5.96c-0.99-0.11-2.02-0.07-3.08,0.12  c-1.67,0.38-2.85,1.01-3.54,1.92c-0.69,0.92-0.97,1.88-0.83,2.9c0.14,1.01,0.62,1.86,1.44,2.54  C28.59,37.14,29.67,37.32,30.85,36.98z M33.89,38.21L39,33.88V37c0,0.78,0.22,1.41,0.67,1.9s0.96,0.73,1.54,0.73h-4.9  c-0.56,0.01-1.05-0.09-1.48-0.31C34.41,39.11,34.1,38.74,33.89,38.21z M43.88,37v-7.28l5.27-4.48V37c0,0.78,0.22,1.41,0.67,1.9  c0.44,0.49,0.96,0.73,1.54,0.73h-9.71c0.6,0,1.12-0.24,1.56-0.73C43.65,38.42,43.88,37.78,43.88,37z"></path>	<path class="st0" d="M79.71,38.21c-0.64,0.6-1.35,1.02-2.14,1.26c-0.79,0.24-1.6,0.37-2.45,0.37c-1.79,0-3.43-0.44-4.9-1.31  c-1.47-0.88-2.65-2.05-3.52-3.52c-0.88-1.47-1.31-3.11-1.31-4.9s0.44-3.43,1.31-4.9c0.88-1.47,2.05-2.65,3.52-3.52  s3.11-1.31,4.9-1.31c1.61,0,3.1,0.35,4.46,1.06v-6.65c0-1.13-0.18-1.89-0.55-2.28s-0.91-0.59-1.62-0.59l7.44-1.9v27.18  c0,0.79,0.22,1.43,0.67,1.92c0.44,0.49,0.96,0.73,1.54,0.73h-4.9c-0.58,0.01-1.1-0.1-1.54-0.34  C80.18,39.25,79.88,38.83,79.71,38.21z M79.58,28.06c0-1.57-0.19-2.85-0.58-3.83c-0.39-0.98-0.92-1.68-1.58-2.12  c-0.67-0.43-1.43-0.62-2.29-0.56c-1.31,0.12-2.37,0.99-3.2,2.6c-0.83,1.6-1.24,3.59-1.24,5.95c0,1.76,0.25,3.35,0.75,4.75  c0.5,1.4,1.16,2.45,1.98,3.13c0.76,0.57,1.62,0.82,2.56,0.75c0.94-0.07,1.78-0.41,2.51-1.02c0.73-0.61,1.09-1.43,1.09-2.46V28.06z"></path>	<path class="st0" d="M102.89,21.41c1.47,0.88,2.65,2.05,3.52,3.52c0.88,1.47,1.31,3.11,1.31,4.9c0,1.79-0.44,3.43-1.31,4.9  c-0.88,1.47-2.05,2.65-3.52,3.52c-1.47,0.88-3.11,1.31-4.9,1.31s-3.43-0.44-4.9-1.31c-1.47-0.88-2.65-2.05-3.52-3.52  c-0.88-1.47-1.31-3.11-1.31-4.9c0-1.79,0.44-3.43,1.31-4.9c0.88-1.47,2.05-2.65,3.52-3.52c1.47-0.88,3.11-1.31,4.9-1.31  S101.42,20.54,102.89,21.41z M94.84,23.79c-0.88,1.67-1.31,3.68-1.31,6.05c0,2.36,0.44,4.38,1.31,6.04c0.88,1.67,1.92,2.5,3.15,2.5  s2.27-0.83,3.14-2.5c0.87-1.67,1.3-3.68,1.3-6.04c0-2.36-0.43-4.38-1.3-6.05c-0.87-1.67-1.92-2.5-3.14-2.5S95.72,22.12,94.84,23.79  z"></path>	<path class="st0" d="M115,37.44c0,0.76-0.26,1.42-0.77,1.98c-0.5,0.54-1.11,0.81-1.83,0.81s-1.33-0.27-1.83-0.81  c-0.51-0.56-0.77-1.22-0.77-1.98s0.26-1.42,0.77-1.96c0.5-0.54,1.11-0.81,1.83-0.81s1.33,0.27,1.83,0.81  C114.74,36.02,115,36.68,115,37.44z"></path></g></svg>