<svg id="Group_5168" data-name="Group 5168" xmlns="http://www.w3.org/2000/svg" xmlns:xlink="http://www.w3.org/1999/xlink" width="354.736" height="216.03" viewBox="0 0 354.736 216.03">
  <defs>
    <clipPath id="clip-path">
      <rect id="Rectangle_429" data-name="Rectangle 429" width="354.736" height="216.03" fill="#f55f19"/>
    </clipPath>
  </defs>
  <path id="Path_84" data-name="Path 84" d="M245.013.425v14.3H215.345V.425H198.839V41.266h16.506V27.085h29.668V41.266h16.508V.425Z" transform="translate(93.214 0.199)" fill="#f55f19"/>
  <g id="Group_5156" data-name="Group 5156">
    <g id="Group_5155" data-name="Group 5155" clip-path="url(#clip-path)">
      <path id="Path_85" data-name="Path 85" d="M260.585,51.993c-11.346-.339-17.982-.511-22.351-.567v29.5H221.673v-29.5c-4.425.056-11.006.228-22.351.567V40.251c10.267-.568,20.421-.737,30.632-.737,10.267,0,20.365.169,30.632.737Z" transform="translate(93.441 18.524)" fill="#f55f19"/>
      <path id="Path_86" data-name="Path 86" d="M58.824,2.5a40.631,40.631,0,0,1,0,37.1,159.686,159.686,0,0,1-29.611,2.5c-5.5,0-10.663-.17-29.213-.623V.624C18.378.283,23.2,0,29.327,0a164.515,164.515,0,0,1,29.5,2.5M42.884,30.178a23.9,23.9,0,0,0,0-18.266,90.233,90.233,0,0,0-13.672-.679,113.717,113.717,0,0,0-12.707.623V30.235a113.324,113.324,0,0,0,12.707.624,89.607,89.607,0,0,0,13.672-.682" fill="#f55f19"/>
      <path id="Path_87" data-name="Path 87" d="M2.715,63.565A45.229,45.229,0,0,1,1.467,52.674,54.067,54.067,0,0,1,2.715,41.046a233.985,233.985,0,0,1,28.022-1.532c9.416,0,18.776.169,28.307.964V50.8c-6.467-.285-12.538-.682-21.1-.682-8.055,0-13.783.283-20.023.737a8.8,8.8,0,0,0-.229,1.871,9.383,9.383,0,0,0,.229,1.645c13.669.682,27.453.17,41.351,2.951a47.873,47.873,0,0,1,1.191,10.947A54.434,54.434,0,0,1,59.27,79.959a239.65,239.65,0,0,1-28.42,1.53c-9.3,0-18.662-.226-28.135-.964V70.2c6.58.339,12.877.623,21.782.623,8,0,13.727-.283,19.344-.682a6.057,6.057,0,0,0,.282-1.929,6.425,6.425,0,0,0-.282-1.814C30,66,16.613,66.061,2.715,63.565" transform="translate(0.688 18.524)" fill="#f55f19"/>
      <path id="Path_88" data-name="Path 88" d="M61.958,91.467c-11.346-.339-17.982-.511-22.351-.567v29.5H23.046V90.9c-4.425.056-11,.228-22.351.567V79.725c10.267-.568,20.421-.737,30.632-.737,10.267,0,20.365.169,30.632.737Z" transform="translate(0.326 37.029)" fill="#f55f19"/>
      <path id="Path_89" data-name="Path 89" d="M2.7,159.889V119.161c9.361-.567,18.72-.737,27.853-.737,9.416,0,18.264.17,27.51.737V130.9a206.2,206.2,0,0,0-20.988-.682c-4.878,0-11.912.113-17.869.452V137.6h25.7l.057,10.439H19.21v11.855Z" transform="translate(1.268 55.516)" fill="#f55f19"/>
      <path id="Path_90" data-name="Path 90" d="M51.462,39.338C50.5,29.128,50.1,18.009,50.1,7.8V.425H66.949V7.8c0,6.921.169,14.692.454,21.556a92.588,92.588,0,0,0,13.1.682,90.944,90.944,0,0,0,13.047-.682c.341-6.864.511-14.635.511-21.556V.425h16.847V7.8c0,10.268-1.248,21.33-1.475,31.539a155.725,155.725,0,0,1-28.931,2.5,157.782,157.782,0,0,1-29.042-2.5" transform="translate(23.487 0.199)" fill="#f55f19"/>
      <path id="Path_91" data-name="Path 91" d="M50.892,40.137h6.582c10.834-.51,17.64-.623,22.235-.623A228.51,228.51,0,0,1,108.015,41.1a73.2,73.2,0,0,1,1.362,14.35,73.374,73.374,0,0,1-1.362,14.409C98.543,70.6,88.9,70.882,79.6,70.882c-2.779,0-6.693,0-12.2-.056v10.1H50.892ZM91.905,60.048a30.844,30.844,0,0,0,.4-4.6,31.515,31.515,0,0,0-.4-4.594c-2.156-.169-9.077-.283-12.31-.283-4.991,0-8.224.115-12.14.341H67.4v9.133l.057-.057c3.916.339,7.149.4,12.14.4s8.4-.057,12.31-.339" transform="translate(23.858 18.524)" fill="#f55f19"/>
      <path id="Path_92" data-name="Path 92" d="M95.478,104.306H67.457v5.276c6.466.056,13.727.056,20.194.056,6.806,0,14.861,0,21.725-.68V120.3c-9.7.565-18.889.737-28.362.737-9.926,0-20.308-.172-30.121-.737V79.686c10.55-.565,21.782-.737,32.333-.737,8.622,0,17.017.172,25.924.737V91.033c-7.319-.682-16.452-.682-23.655-.682-5.9,0-12.253,0-18.038-.056v5.615H95.422Z" transform="translate(23.858 37.011)" fill="#f55f19"/>
      <path id="Path_93" data-name="Path 93" d="M51.462,157.762c-.964-10.21-1.362-21.328-1.362-31.539v-7.373H66.949v7.373c0,6.921.169,14.692.454,21.556a92.585,92.585,0,0,0,13.1.682,90.942,90.942,0,0,0,13.047-.682c.341-6.864.511-14.635.511-21.556v-7.373h16.847v7.373c0,10.268-1.248,21.33-1.475,31.539a155.725,155.725,0,0,1-28.931,2.5,157.782,157.782,0,0,1-29.042-2.5" transform="translate(23.487 55.716)" fill="#f55f19"/>
      <path id="Path_94" data-name="Path 94" d="M160.558,12.518c-11.346-.339-17.982-.511-22.351-.567v29.5H121.646v-29.5c-4.425.056-11.006.228-22.351.567V.776C109.562.208,119.716.039,129.927.039c10.267,0,20.365.169,30.632.737Z" transform="translate(46.549 0.018)" fill="#f55f19"/>
      <path id="Path_95" data-name="Path 95" d="M130.271,81.565a246.462,246.462,0,0,1-30.915-1.871c-.511-6.524-.795-12.708-.795-19.174s.283-12.649.795-19.174a256.312,256.312,0,0,1,61.83,0c.51,6.524.795,12.708.795,19.174s-.285,12.649-.795,19.174a246.513,246.513,0,0,1-30.915,1.871M116.486,69.086c4.481.454,9.246.68,13.785.68s9.3-.226,13.785-.68a72.224,72.224,0,0,0,0-17.131c-4.481-.455-9.246-.682-13.785-.682s-9.3.226-13.785.682a72.021,72.021,0,0,0,0,17.131" transform="translate(46.205 18.506)" fill="#f55f19"/>
      <path id="Path_96" data-name="Path 96" d="M143.168,108.56a29.266,29.266,0,0,0,.4-3.8H161.66a102.944,102.944,0,0,1-1.3,13.785,169.228,169.228,0,0,1-30.122,2.5,169.847,169.847,0,0,1-30.178-2.5,127.169,127.169,0,0,1,0-37.1,169.845,169.845,0,0,1,30.178-2.5,224.494,224.494,0,0,1,30.122,1.871,118.255,118.255,0,0,1,1.362,14.522H143.566c-.059-1.248-.229-2.5-.4-3.913a90.232,90.232,0,0,0-12.934-.682,91.369,91.369,0,0,0-13.046.682c-.283,2.949-.454,5.615-.454,8.565s.17,5.615.454,8.566a91.367,91.367,0,0,0,13.046.68,90.229,90.229,0,0,0,12.934-.68" transform="translate(46.268 37.011)" fill="#f55f19"/>
      <path id="Path_97" data-name="Path 97" d="M161.419,159.691H144.911v-.057l-26.318-28.646a30.949,30.949,0,0,0-3.177-.113v28.816H98.851V118.848h1.93c8.848,0,17.072.228,27.851.795l16.279,18.72V118.848h16.508Z" transform="translate(46.341 55.715)" fill="#f55f19"/>
      <path id="Path_98" data-name="Path 98" d="M193.307,29.611a29.016,29.016,0,0,0,.4-3.8H211.8a102.947,102.947,0,0,1-1.3,13.785,169.227,169.227,0,0,1-30.122,2.5,169.847,169.847,0,0,1-30.178-2.5,127.17,127.17,0,0,1,0-37.1A169.846,169.846,0,0,1,180.373,0a224.5,224.5,0,0,1,30.122,1.871,118.258,118.258,0,0,1,1.362,14.522H193.705c-.059-1.248-.228-2.5-.4-3.913a90.232,90.232,0,0,0-12.934-.682,91.381,91.381,0,0,0-13.046.682c-.283,2.949-.452,5.615-.452,8.565s.169,5.615.452,8.566a91.38,91.38,0,0,0,13.046.68,90.23,90.23,0,0,0,12.934-.68" transform="translate(69.773)" fill="#f55f19"/>
      <path id="Path_99" data-name="Path 99" d="M179.43,60.446c4.765,0,8.849,0,13.1-.228a33.737,33.737,0,0,0,.339-4.765,32.763,32.763,0,0,0-.339-4.65c-4.481-.229-8.34-.229-13.785-.229-4.991,0-8.905,0-13.331.172l-.056,30.176H148.913V40.138c9.985-.341,19.967-.624,29.95-.624a220.543,220.543,0,0,1,29.667,2.1,72.442,72.442,0,0,1,1.362,12.536,69.426,69.426,0,0,1-1.362,15.825c-2.666.115-5.615.455-8.566.682l11.744,10.267H190.947L168.709,61.75v-1.3Z" transform="translate(69.809 18.524)" fill="#f55f19"/>
      <path id="Path_100" data-name="Path 100" d="M165.458,93.669h29.667V79.374h16.508v40.841H195.124V106.034H165.458v14.181H148.951V79.374h16.506Z" transform="translate(69.827 37.21)" fill="#f55f19"/>
      <path id="Path_101" data-name="Path 101" d="M207.563,120.919a40.632,40.632,0,0,1,0,37.1,159.685,159.685,0,0,1-29.611,2.5c-5.5,0-10.663-.17-29.213-.623V119.048c18.378-.341,23.2-.624,29.327-.624a164.514,164.514,0,0,1,29.5,2.5M191.623,148.6a23.9,23.9,0,0,0,0-18.266,90.235,90.235,0,0,0-13.672-.679,113.721,113.721,0,0,0-12.707.623v18.379a113.329,113.329,0,0,0,12.707.624,89.609,89.609,0,0,0,13.672-.682" transform="translate(69.728 55.516)" fill="#f55f19"/>
    </g>
  </g>
</svg>
