<svg width="585" height="241" viewBox="0 0 585 241" fill="none" xmlns="http://www.w3.org/2000/svg">
<path d="M82.674 156.487V158.633H77.164V176.7H74.525V158.633H68.986V156.487H82.674ZM123.97 156.487V176.7H121.331V167.536H111.036V176.7H108.397V156.487H111.036V165.361H121.331V156.487H123.97ZM153.591 158.633V165.39H160.957V167.565H153.591V174.525H161.827V176.7H150.952V156.458H161.827V158.633H153.591ZM234.074 156.487V176.7H231.435V167.536H221.14V176.7H218.501V156.487H221.14V165.361H231.435V156.487H234.074ZM270.219 176.903C268.344 176.903 266.633 176.468 265.086 175.598C263.54 174.709 262.312 173.481 261.403 171.915C260.514 170.33 260.069 168.551 260.069 166.579C260.069 164.607 260.514 162.838 261.403 161.272C262.312 159.687 263.54 158.459 265.086 157.589C266.633 156.7 268.344 156.255 270.219 156.255C272.114 156.255 273.835 156.7 275.381 157.589C276.928 158.459 278.146 159.677 279.035 161.243C279.925 162.809 280.369 164.588 280.369 166.579C280.369 168.57 279.925 170.349 279.035 171.915C278.146 173.481 276.928 174.709 275.381 175.598C273.835 176.468 272.114 176.903 270.219 176.903ZM270.219 174.612C271.631 174.612 272.897 174.283 274.018 173.626C275.159 172.969 276.048 172.031 276.686 170.813C277.344 169.595 277.672 168.184 277.672 166.579C277.672 164.955 277.344 163.544 276.686 162.345C276.048 161.127 275.169 160.189 274.047 159.532C272.926 158.875 271.65 158.546 270.219 158.546C268.789 158.546 267.513 158.875 266.391 159.532C265.27 160.189 264.381 161.127 263.723 162.345C263.085 163.544 262.766 164.955 262.766 166.579C262.766 168.184 263.085 169.595 263.723 170.813C264.381 172.031 265.27 172.969 266.391 173.626C267.532 174.283 268.808 174.612 270.219 174.612ZM308.967 174.554H316.043V176.7H306.328V156.487H308.967V174.554ZM347.614 156.487C349.818 156.487 351.722 156.903 353.327 157.734C354.951 158.546 356.188 159.716 357.039 161.243C357.909 162.77 358.344 164.568 358.344 166.637C358.344 168.706 357.909 170.504 357.039 172.031C356.188 173.539 354.951 174.699 353.327 175.511C351.722 176.304 349.818 176.7 347.614 176.7H341.321V156.487H347.614ZM347.614 174.525C350.224 174.525 352.215 173.839 353.588 172.466C354.96 171.074 355.647 169.131 355.647 166.637C355.647 164.124 354.951 162.161 353.559 160.75C352.186 159.339 350.204 158.633 347.614 158.633H343.96V174.525H347.614ZM386.939 156.487V176.7H384.3V156.487H386.939ZM429.803 176.7H427.164L416.55 160.605V176.7H413.911V156.458H416.55L427.164 172.524V156.458H429.803V176.7ZM472.089 162.345C471.528 161.166 470.716 160.257 469.653 159.619C468.59 158.962 467.352 158.633 465.941 158.633C464.53 158.633 463.254 158.962 462.113 159.619C460.992 160.257 460.102 161.185 459.445 162.403C458.807 163.602 458.488 164.994 458.488 166.579C458.488 168.164 458.807 169.556 459.445 170.755C460.102 171.954 460.992 172.882 462.113 173.539C463.254 174.177 464.53 174.496 465.941 174.496C467.913 174.496 469.537 173.906 470.813 172.727C472.089 171.548 472.833 169.953 473.046 167.942H464.984V165.796H475.859V167.826C475.704 169.489 475.182 171.016 474.293 172.408C473.404 173.781 472.234 174.873 470.784 175.685C469.334 176.478 467.72 176.874 465.941 176.874C464.066 176.874 462.355 176.439 460.808 175.569C459.261 174.68 458.034 173.452 457.125 171.886C456.236 170.32 455.791 168.551 455.791 166.579C455.791 164.607 456.236 162.838 457.125 161.272C458.034 159.687 459.261 158.459 460.808 157.589C462.355 156.7 464.066 156.255 465.941 156.255C468.087 156.255 469.982 156.787 471.625 157.85C473.288 158.913 474.496 160.412 475.25 162.345H472.089ZM508.232 176.903C506.898 176.903 505.7 176.671 504.636 176.207C503.592 175.724 502.771 175.066 502.171 174.235C501.572 173.384 501.263 172.408 501.243 171.306H504.056C504.153 172.253 504.54 173.056 505.216 173.713C505.912 174.351 506.918 174.67 508.232 174.67C509.489 174.67 510.475 174.361 511.19 173.742C511.925 173.104 512.292 172.292 512.292 171.306C512.292 170.533 512.08 169.904 511.654 169.421C511.229 168.938 510.697 168.57 510.059 168.319C509.421 168.068 508.561 167.797 507.478 167.507C506.144 167.159 505.071 166.811 504.259 166.463C503.467 166.115 502.78 165.574 502.2 164.839C501.64 164.085 501.359 163.08 501.359 161.823C501.359 160.721 501.64 159.745 502.2 158.894C502.761 158.043 503.544 157.386 504.549 156.922C505.574 156.458 506.744 156.226 508.058 156.226C509.953 156.226 511.5 156.7 512.698 157.647C513.916 158.594 514.603 159.851 514.757 161.417H511.857C511.761 160.644 511.355 159.967 510.639 159.387C509.924 158.788 508.977 158.488 507.797 158.488C506.695 158.488 505.796 158.778 505.1 159.358C504.404 159.919 504.056 160.711 504.056 161.736C504.056 162.471 504.259 163.07 504.665 163.534C505.091 163.998 505.603 164.356 506.202 164.607C506.821 164.839 507.681 165.11 508.783 165.419C510.117 165.786 511.19 166.154 512.002 166.521C512.814 166.869 513.51 167.42 514.09 168.174C514.67 168.909 514.96 169.914 514.96 171.19C514.96 172.176 514.699 173.104 514.177 173.974C513.655 174.844 512.882 175.55 511.857 176.091C510.833 176.632 509.624 176.903 508.232 176.903Z" fill="white"/>
<path d="M477.458 105.638C477.458 105.454 477.407 105.273 477.31 105.115L453.011 65.5231C452.602 64.8568 453.081 64 453.863 64H465.436C465.782 64 466.103 64.1788 466.286 64.4727L477.85 83.11C480.311 87.1257 482.163 90.9166 483.404 94.4828C483.423 94.5387 483.476 94.576 483.535 94.576C483.593 94.576 483.645 94.5397 483.665 94.4849C484.97 90.9181 486.821 87.1265 489.218 83.11L500.588 64.4791C500.769 64.1815 501.093 64 501.441 64H513.205C513.987 64 514.466 64.8568 514.057 65.5231L489.758 105.115C489.661 105.273 489.61 105.454 489.61 105.638V126.7C489.61 127.252 489.162 127.7 488.61 127.7H478.458C477.906 127.7 477.458 127.252 477.458 126.7V105.638Z" fill="white"/>
<path d="M372.451 65C372.451 64.4477 372.899 64 373.451 64H416.061C421.484 64 425.861 65.764 429.193 69.292C432.525 72.7547 434.191 77.3607 434.191 83.11C434.191 88.206 432.721 92.42 429.781 95.752C427.225 98.6567 423.92 100.477 419.866 101.212C419.147 101.342 418.748 102.151 419.126 102.777L433.274 126.183C433.677 126.849 433.197 127.7 432.418 127.7H421.045C420.69 127.7 420.361 127.511 420.182 127.204L405.473 102.03C405.293 101.723 404.965 101.534 404.609 101.534H385.603C385.051 101.534 384.603 101.982 384.603 102.534V126.7C384.603 127.252 384.155 127.7 383.603 127.7H373.451C372.899 127.7 372.451 127.252 372.451 126.7V65ZM416.061 90.068C417.89 90.068 419.328 89.48 420.373 88.304C421.484 87.128 422.039 85.5927 422.039 83.698V81.836C422.039 79.9413 421.484 78.406 420.373 77.23C419.328 76.054 417.89 75.466 416.061 75.466H385.603C385.051 75.466 384.603 75.9137 384.603 76.466V89.068C384.603 89.6203 385.051 90.068 385.603 90.068H416.061Z" fill="white"/>
<path d="M305.795 64.636C305.945 64.2525 306.314 64 306.726 64H323.49C323.902 64 324.272 64.2531 324.421 64.6373L348.437 126.337C348.692 126.993 348.209 127.7 347.505 127.7H336.62C336.206 127.7 335.835 127.446 335.687 127.06L329.908 112.072C329.759 111.686 329.389 111.432 328.975 111.432H300.853C300.438 111.432 300.066 111.689 299.919 112.077L294.234 127.055C294.087 127.443 293.715 127.7 293.299 127.7H282.616C281.912 127.7 281.428 126.992 281.684 126.336L305.795 64.636ZM324.056 99.966C324.767 99.966 325.251 99.2454 324.982 98.5875L315.708 75.9095C315.367 75.0751 314.183 75.0827 313.852 75.9214L304.916 98.5994C304.657 99.2556 305.141 99.966 305.846 99.966H324.056Z" fill="white"/>
<path d="M197.191 65C197.191 64.4477 197.639 64 198.191 64H207.609C207.901 64 208.179 64.128 208.369 64.3502L243.843 105.845C244.447 106.551 245.603 106.124 245.603 105.195V65C245.603 64.4477 246.051 64 246.603 64H256.755C257.308 64 257.755 64.4477 257.755 65V126.7C257.755 127.252 257.308 127.7 256.755 127.7H247.242C246.948 127.7 246.67 127.571 246.48 127.348L211.105 85.7686C210.502 85.0601 209.343 85.4864 209.343 86.4166V126.7C209.343 127.252 208.896 127.7 208.343 127.7H198.191C197.639 127.7 197.191 127.252 197.191 126.7V65Z" fill="white"/>
<path d="M156.169 65C156.169 64.4477 156.617 64 157.169 64H167.321C167.873 64 168.321 64.4477 168.321 65V126.7C168.321 127.252 167.873 127.7 167.321 127.7H157.169C156.617 127.7 156.169 127.252 156.169 126.7V65Z" fill="white"/>
<path d="M69.1143 65C69.1143 64.4477 69.562 64 70.1143 64H109.098C114.521 64 118.898 65.764 122.23 69.292C125.562 72.7547 127.228 77.3607 127.228 83.11C127.228 85.5273 126.738 87.7813 125.758 89.872C124.993 91.4542 124.008 92.8569 122.804 94.0802C122.313 94.5793 122.397 95.4306 122.978 95.8216C124.873 97.0965 126.387 98.7066 127.522 100.652C128.96 102.939 129.678 105.585 129.678 108.59C129.678 114.339 128.012 118.978 124.68 122.506C121.348 125.969 116.938 127.7 111.45 127.7H70.1143C69.562 127.7 69.1143 127.252 69.1143 126.7V65ZM109.098 90.068C110.928 90.068 112.365 89.48 113.41 88.304C114.521 87.128 115.076 85.5927 115.076 83.698V81.836C115.076 79.9413 114.521 78.406 113.41 77.23C112.365 76.054 110.928 75.466 109.098 75.466H82.2663C81.714 75.466 81.2663 75.9137 81.2663 76.466V89.068C81.2663 89.6203 81.714 90.068 82.2663 90.068H109.098ZM111.45 116.234C113.28 116.234 114.75 115.646 115.86 114.47C116.971 113.294 117.526 111.759 117.526 109.864V107.904C117.526 106.009 116.971 104.474 115.86 103.298C114.75 102.122 113.28 101.534 111.45 101.534H82.2663C81.714 101.534 81.2663 101.982 81.2663 102.534V115.234C81.2663 115.786 81.714 116.234 82.2663 116.234H111.45Z" fill="white"/>
</svg>
