<svg width="80" height="40" viewBox="0 0 80 40" fill="none" xmlns="http://www.w3.org/2000/svg">
<path d="M1.73486 10.6981C3.05637 10.6966 4.37788 10.6951 5.73944 10.6936C6.15567 10.6929 6.57191 10.6923 7.00075 10.6916C7.51166 10.6913 7.51166 10.6913 7.75135 10.6912C7.91764 10.6912 8.08393 10.6909 8.25022 10.6905C8.44265 10.6901 8.63508 10.6899 8.82751 10.69C8.92565 10.69 9.02378 10.6899 9.12192 10.6896C9.61017 10.6877 10.0874 10.7116 10.5725 10.7694C10.6025 10.7729 10.6325 10.7765 10.6634 10.7802C11.0725 10.8295 11.4605 10.9134 11.8554 11.0309C11.8928 11.0417 11.9302 11.0524 11.9676 11.0631C12.1437 11.1145 12.309 11.179 12.474 11.2591C12.5383 11.2896 12.6025 11.3153 12.6691 11.34C12.7704 11.3795 12.8543 11.4321 12.9431 11.4945C12.9954 11.53 13.0484 11.56 13.1042 11.5897C13.2853 11.6885 13.4365 11.8213 13.5897 11.9582C13.6082 11.9743 13.6268 11.9903 13.6459 12.0069C13.7399 12.0888 13.8218 12.1686 13.8985 12.2673C13.9186 12.283 13.9387 12.2987 13.9594 12.3149C14.0211 12.3655 14.0531 12.4103 14.0886 12.4813C14.0886 12.497 14.0886 12.5127 14.0886 12.5289C14.1121 12.5367 14.1356 12.5446 14.1599 12.5526C14.1875 12.5879 14.1875 12.5879 14.2138 12.6333C14.2236 12.65 14.2333 12.6667 14.2434 12.6839C14.2536 12.7019 14.2637 12.7199 14.2742 12.7384C14.2848 12.7568 14.2953 12.7752 14.3062 12.7942C14.5846 13.2833 14.779 13.8205 14.7824 14.3892C14.7825 14.4074 14.7827 14.4257 14.7828 14.4445C14.783 14.483 14.7832 14.5214 14.7833 14.5599C14.7835 14.6173 14.7842 14.6746 14.785 14.7319C14.7878 15.1405 14.7137 15.5178 14.5875 15.9051C14.5782 15.9346 14.5689 15.9641 14.5593 15.9944C14.5036 16.1614 14.4345 16.3086 14.3422 16.4585C14.3079 16.5144 14.2774 16.5706 14.2475 16.6288C14.1944 16.7251 14.1312 16.8119 14.0648 16.8993C14.05 16.919 14.05 16.919 14.0349 16.9391C13.9729 17.019 13.9069 17.0796 13.8273 17.1415C13.8111 17.1702 13.8111 17.1702 13.7946 17.1995C13.7501 17.2697 13.7043 17.3017 13.6352 17.3459C13.586 17.3802 13.586 17.3802 13.5357 17.4343C13.4615 17.5075 13.3828 17.5679 13.2987 17.629C13.283 17.6404 13.2673 17.6519 13.2512 17.6637C13.1502 17.7366 13.0482 17.8025 12.9373 17.8595C12.9006 17.8763 12.9006 17.8763 12.877 17.9024C12.8937 17.9088 12.9105 17.9153 12.9277 17.9219C13.005 17.9519 13.082 17.9821 13.1591 18.0124C13.1854 18.0225 13.2118 18.0326 13.2389 18.0431C13.3866 18.1013 13.5226 18.1652 13.6568 18.2503C13.7095 18.2834 13.7633 18.3131 13.8184 18.3423C13.9073 18.3911 13.9869 18.4471 14.067 18.5093C14.1104 18.5429 14.1548 18.5741 14.2 18.6053C14.2736 18.6574 14.3344 18.7174 14.3975 18.7821C14.4175 18.7973 14.4376 18.8125 14.4583 18.8282C14.5254 18.885 14.5634 18.9465 14.6113 19.0199C14.6314 19.04 14.6514 19.0601 14.6721 19.0808C14.7283 19.137 14.7613 19.1897 14.8013 19.2577C14.8158 19.2714 14.8304 19.2851 14.8453 19.2993C14.9396 19.3981 14.997 19.5235 15.0622 19.6426C15.0835 19.6804 15.1061 19.7175 15.129 19.7545C15.4508 20.2932 15.519 20.936 15.5171 21.5499C15.517 21.5996 15.5171 21.6494 15.5173 21.6991C15.5177 22.3693 15.394 22.9857 15.0389 23.5612C15.0174 23.6012 14.9961 23.6413 14.975 23.6816C14.9283 23.7669 14.8711 23.826 14.8013 23.8941C14.7852 23.9214 14.7699 23.9492 14.7553 23.9773C14.7076 24.0664 14.6428 24.1164 14.5638 24.1794C14.5352 24.2141 14.5066 24.2487 14.4786 24.2838C14.4116 24.3601 14.3325 24.4235 14.2549 24.4885C14.2333 24.5072 14.2118 24.5258 14.1896 24.545C14.1371 24.5829 14.1023 24.5921 14.0411 24.6074C14.0333 24.6309 14.0254 24.6545 14.0173 24.6787C13.9581 24.7188 13.8997 24.7549 13.8377 24.7902C13.8195 24.8006 13.8014 24.8111 13.7828 24.8219C13.3572 25.0648 12.9191 25.253 12.4494 25.392C12.4291 25.3982 12.4089 25.4043 12.3881 25.4106C11.8917 25.5605 11.3861 25.6231 10.8725 25.6818C10.8551 25.6838 10.8377 25.6858 10.8198 25.6879C10.2895 25.7489 9.75999 25.7521 9.22687 25.7514C9.12463 25.7513 9.02238 25.7514 8.92013 25.7514C8.72233 25.7514 8.52453 25.7513 8.32673 25.7511C8.09758 25.751 7.86842 25.7509 7.63926 25.7509C7.03519 25.7508 6.43111 25.7505 5.82704 25.7502C4.47662 25.7497 3.1262 25.7492 1.73486 25.7487C1.73486 20.782 1.73486 15.8153 1.73486 10.6981ZM5.22717 13.3373C5.22717 14.4985 5.22717 15.6598 5.22717 16.8562C5.8785 16.8576 5.8785 16.8576 6.52983 16.8585C6.79576 16.8588 7.0617 16.8591 7.32763 16.8598C7.52138 16.8603 7.71513 16.8606 7.90889 16.8607C8.01128 16.8607 8.11367 16.8609 8.21606 16.8612C9.36108 16.8722 9.36108 16.8722 10.43 16.4996C10.4489 16.4894 10.4678 16.4791 10.4873 16.4686C10.6163 16.3963 10.7169 16.3163 10.8174 16.2079C10.8576 16.1667 10.8576 16.1667 10.9289 16.1191C10.9743 16.0511 11.0098 15.9776 11.0477 15.9051C11.0581 15.8872 11.0685 15.8692 11.0792 15.8507C11.2844 15.4809 11.286 14.997 11.1925 14.5916C11.0857 14.226 10.8237 13.9362 10.5013 13.7415C10.3702 13.6705 10.2347 13.6091 10.0974 13.5513C10.0693 13.539 10.0412 13.5267 10.0123 13.5141C9.87956 13.4654 9.73969 13.4468 9.60053 13.4251C9.55327 13.4176 9.50607 13.4098 9.45888 13.4019C9.29956 13.376 9.14119 13.3567 8.97999 13.3477C8.96253 13.3467 8.94507 13.3457 8.92708 13.3447C8.75013 13.3353 8.57337 13.3341 8.3962 13.3346C8.36071 13.3346 8.32522 13.3346 8.28973 13.3346C8.19608 13.3346 8.10244 13.3347 8.00879 13.3349C7.92039 13.335 7.83198 13.335 7.74358 13.335C7.48633 13.3351 7.22909 13.3355 6.97184 13.3358C6.10823 13.3365 6.10823 13.3365 5.22717 13.3373ZM5.22717 19.4241C5.22717 20.6324 5.22717 21.8407 5.22717 23.0857C6.00153 23.0871 6.00153 23.0871 6.77589 23.088C7.09194 23.0883 7.40798 23.0886 7.72403 23.0893C7.95426 23.0898 8.18449 23.0901 8.41473 23.0902C8.53646 23.0902 8.6582 23.0904 8.77993 23.0907C8.89488 23.091 9.00983 23.0911 9.12478 23.0911C9.16662 23.0911 9.20846 23.0912 9.25029 23.0914C9.90259 23.0941 10.6154 23.0347 11.1902 22.7053C11.2186 22.6903 11.2186 22.6903 11.2475 22.6751C11.4598 22.5556 11.6491 22.3753 11.7604 22.1584C11.7757 22.1322 11.7757 22.1322 11.7912 22.1055C11.8824 21.9406 11.9188 21.7724 11.9505 21.5878C11.9536 21.5701 11.9568 21.5525 11.96 21.5343C12.026 21.1002 11.9399 20.6415 11.6946 20.2799C11.5832 20.1302 11.4707 20.0091 11.3179 19.9011C11.3007 19.8889 11.2835 19.8767 11.2657 19.8642C10.5315 19.3667 9.58334 19.4096 8.73592 19.4144C8.61205 19.4151 8.48817 19.4151 8.3643 19.4152C8.13101 19.4155 7.89772 19.4163 7.66442 19.4172C7.34827 19.4185 7.03212 19.419 6.71596 19.4196C6.2197 19.4205 5.72344 19.4224 5.22717 19.4241Z" fill="white"/>
<path d="M60.1548 14.1702C61.3151 14.1702 62.4754 14.1702 63.6709 14.1702C63.7179 14.2996 63.7179 14.2996 63.7659 14.4317C63.7893 14.4851 63.8135 14.5382 63.8387 14.5907C63.8846 14.6868 63.9247 14.7828 63.9613 14.8827C63.991 14.9606 64.0256 15.0363 64.0599 15.1123C64.1272 15.2635 64.1843 15.4157 64.2384 15.5722C64.2657 15.6467 64.2984 15.7146 64.3355 15.7846C64.3668 15.8488 64.3912 15.9147 64.4163 15.9816C64.4566 16.0891 64.5006 16.193 64.5499 16.2967C64.613 16.4305 64.6628 16.5664 64.7111 16.7062C64.7454 16.8006 64.7865 16.8904 64.8291 16.9813C64.8613 17.0528 64.8891 17.1253 64.9166 17.1987C64.9574 17.3071 65.0024 17.412 65.0518 17.5167C65.0908 17.5996 65.1272 17.6803 65.1542 17.7679C65.186 17.8704 65.2282 17.9671 65.2715 18.0651C65.2789 18.0817 65.2863 18.0984 65.2938 18.1156C65.3084 18.1486 65.3231 18.1816 65.3377 18.2145C65.4119 18.3827 65.4796 18.5528 65.544 18.7249C65.6208 18.93 65.7022 19.1298 65.7984 19.3266C65.8328 19.401 65.8328 19.401 65.8554 19.4692C65.8878 19.5661 65.93 19.6574 65.9724 19.7502C66.0348 19.8887 66.0921 20.0267 66.1417 20.1703C66.1795 20.2707 66.2264 20.3666 66.2731 20.463C66.3 20.5241 66.3218 20.5823 66.3421 20.6456C66.378 20.7567 66.424 20.8613 66.4727 20.9673C66.5347 21.1042 66.5916 21.2405 66.6404 21.3828C66.6791 21.485 66.7281 21.5824 66.7767 21.6802C66.8094 21.7612 66.8216 21.8348 66.8306 21.9214C66.8463 21.9214 66.8619 21.9214 66.8781 21.9214C66.8874 21.8919 66.8967 21.8625 66.9063 21.8322C66.9646 21.6573 67.0382 21.4887 67.1137 21.3206C67.1643 21.2071 67.2099 21.0919 67.2552 20.9762C67.3096 20.8386 67.3655 20.7028 67.429 20.5691C67.4907 20.4388 67.5387 20.3061 67.5857 20.17C67.62 20.0756 67.6611 19.9857 67.7038 19.8949C67.7359 19.8233 67.7638 19.7509 67.7913 19.6774C67.8414 19.5445 67.8992 19.4168 67.9597 19.2883C68.006 19.1858 68.0451 19.0811 68.0846 18.9758C68.1117 18.9062 68.1414 18.8387 68.1729 18.7709C68.2165 18.6771 68.2551 18.5825 68.2917 18.4856C68.3365 18.3667 68.3866 18.2517 68.4401 18.1364C68.4839 18.0378 68.521 17.9369 68.559 17.8359C68.5859 17.7673 68.6152 17.7009 68.6465 17.6341C68.6969 17.526 68.7392 17.4162 68.7802 17.3042C68.8215 17.1914 68.8649 17.0828 68.9214 16.9767C68.9653 16.8865 68.9979 16.7915 69.0331 16.6976C69.0613 16.6255 69.0919 16.5556 69.1246 16.4854C69.1638 16.4013 69.198 16.3174 69.2286 16.2298C69.2631 16.1318 69.3031 16.0385 69.3474 15.9445C69.4073 15.8172 69.459 15.6886 69.5084 15.557C69.5519 15.4443 69.6001 15.3337 69.6481 15.2228C69.6763 15.1571 69.703 15.0912 69.729 15.0246C69.7655 14.9317 69.8067 14.8416 69.8492 14.7512C69.8902 14.6635 69.9282 14.5775 69.9576 14.4852C69.9925 14.3774 70.0393 14.2737 70.0853 14.1702C71.1594 14.1702 72.2335 14.1702 73.3401 14.1702C73.2867 14.4107 73.2867 14.4107 73.2453 14.4982C73.232 14.527 73.232 14.527 73.2184 14.5564C73.2044 14.5859 73.2044 14.5859 73.1901 14.616C73.1159 14.7763 73.0479 14.9361 72.9865 15.1017C72.9523 15.1881 72.9102 15.2692 72.8675 15.3517C72.8429 15.4028 72.825 15.4519 72.8085 15.5061C72.7725 15.6223 72.7199 15.7298 72.6676 15.8393C72.6092 15.9624 72.5604 16.0877 72.5128 16.2154C72.479 16.3009 72.438 16.381 72.3957 16.4625C72.3497 16.5579 72.3141 16.6571 72.277 16.7562C72.2406 16.8503 72.1989 16.9413 72.1565 17.0327C72.1299 17.0915 72.1058 17.1506 72.0824 17.2106C72.0458 17.3041 72.0049 17.3947 71.9621 17.4855C71.9184 17.5791 71.8786 17.6718 71.8448 17.7694C71.8018 17.893 71.7469 18.0098 71.6906 18.1277C71.6394 18.2358 71.5979 18.3446 71.559 18.4575C71.5215 18.5552 71.4723 18.6465 71.4245 18.7395C71.3971 18.7961 71.376 18.8491 71.3578 18.9092C71.3276 19.0081 71.285 19.0998 71.2405 19.193C71.1746 19.331 71.1172 19.4703 71.0637 19.6137C71.0365 19.6839 71.0065 19.7518 70.9747 19.8201C70.9353 19.9047 70.9013 19.989 70.8708 20.0772C70.8278 20.1998 70.7711 20.3122 70.7117 20.4276C70.6843 20.4843 70.6633 20.5373 70.6451 20.5973C70.6099 20.7126 70.5575 20.819 70.5056 20.9275C70.4473 21.0506 70.3985 21.1759 70.3509 21.3036C70.3171 21.3891 70.2761 21.4691 70.2338 21.5506C70.1876 21.6466 70.1523 21.7464 70.1151 21.8461C70.0881 21.9143 70.0582 21.9782 70.0244 22.0432C69.9838 22.1217 69.9509 22.1989 69.922 22.2825C69.8846 22.39 69.8391 22.492 69.7898 22.5945C69.721 22.738 69.6661 22.8831 69.6145 23.0338C69.5815 23.1235 69.54 23.206 69.4957 23.2905C69.4661 23.3512 69.4436 23.4119 69.4216 23.4758C69.3877 23.5733 69.3471 23.6633 69.2999 23.7551C69.2587 23.8351 69.222 23.9113 69.1959 23.9974C69.1657 24.0963 69.1231 24.188 69.0786 24.2812C69.0127 24.4193 68.9553 24.5586 68.9017 24.702C68.8664 24.7935 68.8259 24.8819 68.7846 24.9708C68.7534 25.0395 68.7243 25.1089 68.6955 25.1788C68.6578 25.2704 68.6185 25.3608 68.5767 25.4507C68.5333 25.5451 68.4947 25.6403 68.458 25.7375C68.4139 25.8542 68.3653 25.9671 68.3127 26.0801C68.2639 26.1891 68.2193 26.2998 68.1749 26.4107C68.1343 26.511 68.0898 26.6076 68.0394 26.7035C68.017 26.7512 68.0018 26.7984 67.9873 26.8491C67.9494 26.9702 67.8849 27.0717 67.8195 27.1797C67.7879 27.235 67.7649 27.2838 67.7452 27.3439C67.7092 27.4513 67.6471 27.54 67.5852 27.6342C67.5482 27.6915 67.5147 27.7491 67.4824 27.809C67.3148 28.1149 67.091 28.3888 66.8554 28.6447C66.8106 28.6936 66.7678 28.7436 66.7252 28.7943C66.5714 28.9695 66.3921 29.1132 66.207 29.2535C66.191 29.2657 66.175 29.2778 66.1585 29.2904C65.933 29.4586 65.933 29.4586 65.8328 29.4586C65.8328 29.4742 65.8328 29.4899 65.8328 29.5061C65.7315 29.5546 65.6299 29.6022 65.5278 29.649C65.4951 29.664 65.4624 29.6791 65.4299 29.6945C64.2474 30.2471 62.6705 30.2062 61.4553 29.7724C61.4097 29.7553 61.3643 29.7378 61.3189 29.7201C61.2874 29.7085 61.2559 29.6969 61.2244 29.6854C61.0537 29.6214 60.8964 29.5452 60.7412 29.4494C60.6777 29.4098 60.6777 29.4098 60.6087 29.3778C60.5214 29.3327 60.4448 29.2787 60.3657 29.2208C60.3512 29.2104 60.3368 29.1999 60.3219 29.1892C60.2499 29.137 60.1783 29.0843 60.1073 29.0306C60.1208 28.9376 60.1484 28.8758 60.1994 28.7973C60.2435 28.7264 60.2815 28.661 60.3078 28.5818C60.3361 28.4989 60.3756 28.4282 60.4206 28.3529C60.5154 28.1943 60.5969 28.0306 60.6782 27.8648C60.7132 27.7935 60.7488 27.7225 60.7844 27.6515C60.8266 27.5672 60.8687 27.4829 60.9101 27.3982C61.0461 27.1215 61.1938 26.8515 61.3427 26.5816C61.3994 26.6082 61.4367 26.6281 61.4808 26.6737C61.5338 26.7253 61.588 26.7578 61.6528 26.7928C61.7011 26.8205 61.7446 26.852 61.7896 26.8847C61.9585 26.9996 62.1527 27.0738 62.3405 27.1522C62.3597 27.1604 62.379 27.1686 62.3988 27.177C62.8908 27.3625 63.5478 27.3635 64.0363 27.1675C64.2134 27.0755 64.3737 26.9518 64.5128 26.8089C64.5329 26.7888 64.553 26.7687 64.5737 26.748C64.5893 26.748 64.605 26.748 64.6212 26.748C64.6272 26.7308 64.6332 26.7136 64.6395 26.6959C64.6707 26.6246 64.7083 26.5729 64.7563 26.5117C64.8516 26.3839 64.9203 26.2533 64.9884 26.1099C65.025 26.0347 65.025 26.0347 65.0654 25.9773C65.1084 25.8918 65.1117 25.8182 65.0963 25.7256C65.069 25.6441 65.033 25.568 64.9953 25.4908C64.9764 25.4508 64.9574 25.4107 64.9385 25.3706C64.9292 25.3508 64.9198 25.331 64.9101 25.3106C64.8735 25.2302 64.8412 25.1484 64.809 25.0661C64.7813 24.9968 64.7499 24.9296 64.7177 24.8622C64.6687 24.7575 64.6245 24.6525 64.584 24.5442C64.5493 24.4515 64.5123 24.3631 64.4667 24.2752C64.4083 24.1624 64.3644 24.0462 64.3199 23.9273C64.2777 23.8195 64.2286 23.7154 64.1793 23.6107C64.1417 23.5288 64.1088 23.4457 64.0761 23.3618C64.0468 23.2901 64.0142 23.2204 63.9812 23.1503C63.9208 23.021 63.8687 22.89 63.8185 22.7564C63.7828 22.6645 63.7421 22.5754 63.7006 22.486C63.6693 22.4172 63.6402 22.3478 63.6115 22.278C63.5732 22.185 63.5333 22.093 63.4912 22.0016C63.4542 21.9211 63.4195 21.8404 63.3873 21.7579C63.3511 21.6654 63.3107 21.5758 63.2685 21.4859C63.2195 21.3812 63.1753 21.2762 63.1349 21.1679C63.1001 21.0752 63.0631 20.9868 63.0176 20.899C62.9592 20.7862 62.9148 20.6702 62.8702 20.5515C62.7823 20.3217 62.679 20.0986 62.5766 19.8751C62.5006 19.7092 62.4293 19.5437 62.366 19.3726C62.3317 19.2831 62.2917 19.1966 62.2514 19.1097C62.2201 19.0409 62.191 18.9716 62.1623 18.9017C62.124 18.8087 62.0841 18.7167 62.042 18.6253C62.005 18.5448 61.9703 18.4641 61.9381 18.3816C61.8904 18.2598 61.8351 18.142 61.779 18.0238C61.7465 17.9507 61.7465 17.9507 61.7242 17.882C61.6928 17.7895 61.6511 17.704 61.6085 17.6163C61.5376 17.4683 61.4745 17.3197 61.4175 17.1657C61.3821 17.0736 61.341 16.9846 61.2994 16.8951C61.2729 16.8364 61.2488 16.7773 61.2254 16.7172C61.1892 16.6248 61.1488 16.5351 61.1066 16.4453C61.0583 16.342 61.0145 16.2385 60.9744 16.1317C60.9248 15.9993 60.8676 15.8719 60.8075 15.744C60.7631 15.6477 60.7229 15.55 60.6827 15.4519C60.6541 15.3836 60.6238 15.3163 60.5928 15.249C60.5558 15.1685 60.5211 15.0879 60.4889 15.0053C60.4413 14.8835 60.3859 14.7657 60.3298 14.6476C60.2983 14.5765 60.274 14.5055 60.2498 14.4317C60.2256 14.3753 60.1998 14.3198 60.1739 14.2642C60.1548 14.2177 60.1548 14.2177 60.1548 14.1702Z" fill="white"/>
<path d="M45.4265 14.1219C45.4511 14.1264 45.4757 14.1309 45.5011 14.1356C45.8001 14.1915 46.0888 14.2602 46.3745 14.3653C46.4251 14.3838 46.4759 14.4015 46.5267 14.4192C46.6902 14.4771 46.8403 14.5411 46.9867 14.6357C47.079 14.6909 47.1786 14.7274 47.2795 14.7639C47.2795 14.7796 47.2795 14.7953 47.2795 14.8114C47.2965 14.8176 47.3134 14.8238 47.3308 14.8302C47.4022 14.8607 47.4637 14.8972 47.529 14.9392C47.5508 14.9532 47.5726 14.9671 47.5951 14.9814C47.6592 15.0251 47.7202 15.0692 47.7784 15.1205C47.7784 15.1362 47.7784 15.1519 47.7784 15.1681C47.7917 15.1701 47.8049 15.172 47.8185 15.174C47.9137 15.2049 47.9756 15.2658 48.0368 15.3434C48.0908 15.4101 48.1489 15.4593 48.2159 15.5122C48.258 15.5527 48.2763 15.5912 48.3011 15.6436C48.3283 15.6701 48.3556 15.6965 48.383 15.7228C48.4686 15.8149 48.5382 15.9209 48.61 16.0241C48.6205 16.0389 48.631 16.0538 48.6419 16.0691C48.7275 16.1973 48.7891 16.3383 48.8531 16.4781C48.8609 16.4952 48.8687 16.5122 48.8768 16.5298C48.8837 16.5451 48.8907 16.5605 48.8978 16.5763C48.9208 16.6247 48.9208 16.6247 48.9663 16.6898C48.9818 16.735 48.996 16.7807 49.0094 16.8265C49.0536 16.9749 49.1023 17.1212 49.1528 17.2675C49.2144 17.4661 49.2453 17.6687 49.2752 17.8742C49.2791 17.8994 49.283 17.9246 49.287 17.9506C49.3669 18.4989 49.3771 19.0521 49.3756 19.6052C49.3755 19.6728 49.3756 19.7403 49.3756 19.8079C49.3756 19.9518 49.3755 20.0957 49.3752 20.2396C49.3748 20.4476 49.3747 20.6557 49.3746 20.8637C49.3745 21.2014 49.3742 21.5392 49.3738 21.8769C49.3733 22.2045 49.373 22.5321 49.3728 22.8596C49.3728 22.8801 49.3728 22.9006 49.3728 22.9217C49.3727 23.082 49.3726 23.2422 49.3725 23.4025C49.372 24.1846 49.3711 24.9666 49.3702 25.7487C48.3196 25.7487 47.2691 25.7487 46.1867 25.7487C46.175 25.0896 46.175 25.0896 46.163 24.4172C46.1002 24.5035 46.0375 24.5898 45.9729 24.6788C45.8362 24.8478 45.6847 24.9926 45.5171 25.1305C45.5015 25.1434 45.486 25.1562 45.4701 25.1694C45.3795 25.2419 45.2897 25.2978 45.1848 25.3472C45.1257 25.3759 45.0719 25.4115 45.0167 25.447C44.8182 25.5646 44.5999 25.6312 44.3812 25.7012C44.3633 25.7072 44.3455 25.7133 44.3271 25.7196C44.1585 25.7747 43.9865 25.8016 43.8116 25.8273C43.7611 25.8348 43.7106 25.8426 43.6601 25.8505C42.7388 25.9908 41.6457 25.9773 40.7701 25.6298C40.7383 25.6186 40.7065 25.6075 40.6746 25.5965C40.4936 25.5331 40.3308 25.4599 40.167 25.3585C40.113 25.3257 40.0597 25.2981 40.0024 25.2717C39.9194 25.2317 39.8574 25.179 39.7894 25.1172C39.7488 25.0832 39.7091 25.0589 39.6624 25.0339C39.5807 24.987 39.528 24.9369 39.4634 24.869C39.4448 24.8547 39.4262 24.8405 39.407 24.8259C39.3202 24.7535 39.2513 24.6697 39.1783 24.5836C39.1568 24.5591 39.1353 24.5346 39.1138 24.5101C39.0045 24.3849 38.9013 24.2649 38.8263 24.1155C38.7797 24.0243 38.7246 23.9382 38.6711 23.851C38.6226 23.7571 38.5919 23.662 38.5607 23.5613C38.5547 23.5428 38.5487 23.5243 38.5425 23.5053C38.2958 22.7447 38.2939 21.9396 38.5607 21.1836C38.5694 21.1575 38.5782 21.1315 38.5872 21.1046C38.7958 20.5185 39.2558 19.9624 39.8198 19.6857C39.8615 19.6587 39.9031 19.6314 39.9445 19.6039C40.045 19.5392 40.1417 19.49 40.2536 19.4487C40.3604 19.4083 40.4641 19.3605 40.5683 19.314C40.6418 19.2852 40.7134 19.2644 40.7901 19.2464C40.8456 19.2329 40.9001 19.217 40.9548 19.2006C41.6337 18.9976 42.3469 18.92 43.0547 18.9221C43.0868 18.9221 43.1189 18.9221 43.151 18.9221C43.2371 18.9221 43.3231 18.9222 43.4091 18.9224C43.4994 18.9225 43.5898 18.9226 43.6801 18.9226C43.8506 18.9227 44.0212 18.9229 44.1917 18.9231C44.3861 18.9234 44.5805 18.9235 44.7748 18.9236C45.1742 18.9239 45.5735 18.9243 45.9729 18.9248C45.9654 18.8561 45.9579 18.7874 45.9504 18.7187C45.9483 18.6993 45.9462 18.6799 45.9441 18.66C45.9298 18.5299 45.9129 18.4016 45.8838 18.2739C45.8799 18.2563 45.8759 18.2388 45.8718 18.2207C45.8335 18.0621 45.7679 17.9253 45.6878 17.7835C45.6713 17.7484 45.655 17.7133 45.6388 17.678C45.5971 17.5944 45.5437 17.5372 45.474 17.4744C45.4415 17.4436 45.4095 17.4121 45.379 17.3793C45.379 17.3636 45.379 17.3479 45.379 17.3318C45.3651 17.3256 45.3513 17.3194 45.337 17.313C45.2806 17.2824 45.2414 17.248 45.1949 17.204C45.104 17.1226 45.0144 17.0722 44.9038 17.0227C44.8701 17.006 44.8364 16.9891 44.8029 16.9721C44.788 16.9647 44.7732 16.9573 44.7579 16.9497C44.7293 16.9353 44.7009 16.9203 44.673 16.9046C44.6054 16.8739 44.5398 16.8601 44.4671 16.845C44.4374 16.8388 44.4077 16.8326 44.3771 16.8263C44.3616 16.8231 44.3462 16.82 44.3303 16.8168C44.2838 16.8073 44.2374 16.7976 44.1909 16.7878C43.6114 16.6687 43.0145 16.6852 42.4331 16.7849C42.4104 16.7885 42.3877 16.7921 42.3643 16.7957C41.7042 16.9008 40.9337 17.1215 40.3948 17.5299C40.3327 17.577 40.2683 17.6194 40.2029 17.6617C40.1819 17.6753 40.1609 17.689 40.1392 17.7031C40.0867 17.7328 40.045 17.7491 39.9861 17.7598C39.8194 17.4559 39.8194 17.4559 39.7827 17.363C39.7523 17.293 39.7186 17.2331 39.6787 17.1683C39.6235 17.0782 39.5789 16.9888 39.5379 16.8916C39.4915 16.7898 39.436 16.6928 39.3824 16.5946C39.3446 16.5234 39.3446 16.5234 39.309 16.4387C39.2638 16.3351 39.2064 16.241 39.1479 16.1444C39.1042 16.0666 39.0705 15.9874 39.0358 15.9052C38.9965 15.8243 38.9552 15.7443 38.914 15.6644C38.8671 15.5719 38.8282 15.4818 38.7982 15.3821C39.2308 15.0654 39.735 14.7719 40.2509 14.6194C40.3167 14.5981 40.3776 14.5722 40.4406 14.5438C40.6423 14.4589 40.8518 14.4035 41.0626 14.3463C41.0837 14.3405 41.1048 14.3348 41.1266 14.3288C41.4271 14.247 41.7257 14.1743 42.0345 14.1313C42.1079 14.1209 42.181 14.1091 42.2542 14.0971C43.3094 13.9278 44.3748 13.9286 45.4265 14.1219ZM43.0595 20.9428C43.0375 20.9446 43.0154 20.9464 42.9927 20.9482C42.802 20.9661 42.6335 21.0127 42.4568 21.0885C42.4185 21.1047 42.4185 21.1047 42.3793 21.1213C42.0901 21.2546 41.8782 21.4643 41.7441 21.7542C41.6464 22.0281 41.6476 22.3148 41.7144 22.5938C41.7181 22.6095 41.7219 22.6251 41.7257 22.6412C41.7558 22.7554 41.8015 22.8435 41.8629 22.9431C41.8727 22.9594 41.8824 22.9757 41.8925 22.9926C42.1574 23.3776 42.6075 23.5135 43.0438 23.5999C43.1832 23.6226 43.3236 23.6219 43.4644 23.6199C43.5172 23.6192 43.5699 23.6194 43.6226 23.6197C43.9477 23.6193 44.2503 23.5604 44.5579 23.4528C44.5811 23.4447 44.6043 23.4366 44.6282 23.4282C45.1035 23.2542 45.4591 22.9376 45.7437 22.5238C45.7682 22.4886 45.7936 22.4539 45.8203 22.4203C45.8587 22.3658 45.881 22.3129 45.9046 22.2506C45.9482 22.1365 45.9482 22.1365 45.9729 22.0871C45.975 22.0497 45.9757 22.0122 45.9756 21.9748C45.9756 21.9514 45.9756 21.9281 45.9756 21.9041C45.9755 21.8788 45.9753 21.8536 45.9752 21.8276C45.9752 21.8018 45.9752 21.776 45.9751 21.7494C45.975 21.6668 45.9747 21.5842 45.9744 21.5016C45.9743 21.4457 45.9742 21.3898 45.9741 21.3339C45.9738 21.1966 45.9734 21.0593 45.9729 20.922C45.6416 20.9209 45.3103 20.9201 44.979 20.9196C44.8251 20.9193 44.6712 20.919 44.5173 20.9185C44.3684 20.9179 44.2194 20.9177 44.0705 20.9175C44.0141 20.9174 43.9577 20.9173 43.9014 20.917C43.6198 20.9158 43.3402 20.9193 43.0595 20.9428Z" fill="white"/>
<path d="M33.4715 14.3842C33.5285 14.4092 33.5862 14.4317 33.6442 14.4542C33.7452 14.4943 33.8363 14.5407 33.93 14.5956C33.944 14.6038 33.9581 14.6121 33.9726 14.6205C34.0129 14.6443 34.0531 14.6682 34.0933 14.6922C34.1143 14.7044 34.1352 14.7166 34.1568 14.7292C34.1999 14.755 34.2418 14.7828 34.2834 14.8111C34.2834 14.8268 34.2834 14.8424 34.2834 14.8586C34.3005 14.865 34.3177 14.8714 34.3353 14.8779C34.4617 14.9313 34.5442 14.9984 34.6397 15.0964C34.6583 15.1106 34.677 15.1248 34.6961 15.1395C34.7656 15.1974 34.8213 15.2606 34.8799 15.3292C34.9261 15.3833 34.9736 15.436 35.0213 15.4887C35.2061 15.6965 35.3565 15.9257 35.495 16.1663C35.5031 16.1804 35.5112 16.1945 35.5196 16.209C35.6732 16.4776 35.7816 16.7515 35.8751 17.0461C35.8829 17.0695 35.8907 17.093 35.8987 17.1172C35.9612 17.3099 36.0007 17.5015 36.0325 17.7014C36.0373 17.7301 36.0422 17.7587 36.0472 17.7882C36.1246 18.2622 36.1434 18.7283 36.1419 19.2083C36.1417 19.2963 36.1418 19.3844 36.1418 19.4725C36.1419 19.6245 36.1417 19.7765 36.1415 19.9285C36.1411 20.1483 36.1409 20.368 36.1409 20.5878C36.1408 20.9445 36.1405 21.3012 36.14 21.6579C36.1396 22.0041 36.1392 22.3502 36.139 22.6964C36.139 22.718 36.139 22.7396 36.139 22.7619C36.1389 22.931 36.1388 23.1 36.1387 23.2691C36.1383 24.0955 36.1373 24.9219 36.1364 25.7483C35.0232 25.7483 33.9099 25.7483 32.7629 25.7483C32.7617 25.2956 32.7606 24.8428 32.7594 24.3763C32.7585 24.0892 32.7577 23.802 32.7568 23.5149C32.7563 23.364 32.7558 23.2131 32.7554 23.0621C32.7553 23.0432 32.7553 23.0243 32.7552 23.0048C32.7542 22.7004 32.7535 22.3959 32.7528 22.0915C32.752 21.7785 32.7511 21.4656 32.75 21.1526C32.7494 20.9599 32.7488 20.7671 32.7485 20.5743C32.7482 20.4417 32.7478 20.3092 32.7472 20.1766C32.7469 20.1003 32.7467 20.0241 32.7467 19.9479C32.7462 19.5056 32.7317 19.0675 32.6412 18.6332C32.6362 18.6094 32.6313 18.5856 32.6262 18.5611C32.5777 18.3452 32.4925 18.164 32.3828 17.9734C32.3709 17.9488 32.3591 17.9243 32.3469 17.8991C32.2529 17.7174 32.0705 17.4723 31.8839 17.3789C31.8839 17.3632 31.8839 17.3476 31.8839 17.3314C31.8712 17.3293 31.8585 17.3272 31.8455 17.3251C31.7694 17.3016 31.7107 17.2608 31.6433 17.2185C31.293 17.0088 30.8583 16.9413 30.4555 16.9435C30.4168 16.9437 30.4168 16.9437 30.3773 16.9439C29.8848 16.951 29.4161 17.0676 28.9855 17.3076C28.9632 17.3199 28.9409 17.3323 28.918 17.3449C28.7431 17.4456 28.6034 17.5677 28.4629 17.7118C28.4496 17.7243 28.4364 17.7367 28.4228 17.7495C28.3358 17.8324 28.2675 17.9141 28.2071 18.0181C28.1877 18.0514 28.1672 18.084 28.1455 18.1158C28.0536 18.2547 27.9936 18.4026 27.9343 18.5574C27.9261 18.5784 27.918 18.5995 27.9097 18.6212C27.7106 19.1552 27.7157 19.7545 27.7161 20.3174C27.7159 20.3773 27.7156 20.4371 27.7154 20.4969C27.7149 20.6241 27.7146 20.7513 27.7144 20.8785C27.7143 21.0624 27.7137 21.2463 27.7131 21.4302C27.7121 21.7288 27.7114 22.0273 27.7109 22.3259C27.7104 22.6154 27.7097 22.905 27.7089 23.1945C27.7088 23.2126 27.7088 23.2307 27.7087 23.2494C27.7083 23.3911 27.7079 23.5329 27.7074 23.6746C27.7054 24.3659 27.7041 25.0571 27.7026 25.7483C26.5894 25.7483 25.4761 25.7483 24.3291 25.7483C24.3291 21.9272 24.3291 18.106 24.3291 14.1691C25.3875 14.1691 26.4459 14.1691 27.5363 14.1691C27.5442 14.5928 27.552 15.0165 27.5601 15.453C27.6858 15.3443 27.6858 15.3443 27.8066 15.2301C27.8654 15.1713 27.9252 15.1142 27.9862 15.0577C28.0055 15.0398 28.0249 15.0218 28.0448 15.0033C28.1065 14.9537 28.1065 14.9537 28.1734 14.9205C28.2363 14.8888 28.2823 14.8585 28.3371 14.8156C28.449 14.7295 28.569 14.6625 28.693 14.5956C28.7161 14.5831 28.7392 14.5705 28.7631 14.5576C28.9046 14.482 29.044 14.4139 29.196 14.3618C29.2689 14.3361 29.3399 14.3075 29.4114 14.2784C29.5837 14.2119 29.7584 14.1687 29.9388 14.1305C29.9552 14.1269 29.9716 14.1234 29.9886 14.1198C31.1273 13.8771 32.3951 13.8981 33.4715 14.3842Z" fill="white"/>
<path d="M59.5363 13.9793C59.5363 15.0151 59.5363 16.0508 59.5363 17.1179C59.0973 17.1179 58.6583 17.1179 58.2059 17.1179C57.8695 17.1886 57.8695 17.1886 57.5422 17.2858C57.5229 17.2926 57.5036 17.2993 57.4837 17.3063C57.2355 17.3984 56.9896 17.5304 56.7826 17.6964C56.733 17.7361 56.733 17.7361 56.6855 17.7361C56.6776 17.7596 56.6698 17.7831 56.6617 17.8074C56.6143 17.8393 56.5668 17.871 56.5192 17.9025C55.9696 18.4368 55.7439 19.2709 55.7319 20.0203C55.7316 20.0637 55.7315 20.107 55.7314 20.1504C55.7313 20.1745 55.7312 20.1985 55.7311 20.2234C55.7307 20.3035 55.7305 20.3836 55.7303 20.4636C55.7301 20.5213 55.7298 20.579 55.7296 20.6366C55.7291 20.7604 55.7286 20.8843 55.7283 21.0081C55.7277 21.1871 55.727 21.3661 55.7264 21.5451C55.7252 21.8356 55.7242 22.1261 55.7232 22.4166C55.7223 22.6987 55.7213 22.9808 55.7203 23.2629C55.7202 23.2804 55.7201 23.298 55.7201 23.3161C55.7195 23.4691 55.7189 23.6221 55.7183 23.7751C55.7159 24.433 55.7137 25.0909 55.7114 25.7488C54.5982 25.7488 53.4849 25.7488 52.3379 25.7488C52.3379 21.9276 52.3379 18.1065 52.3379 14.1696C53.4041 14.1696 54.4703 14.1696 55.5689 14.1696C55.5767 14.6325 55.5845 15.0954 55.5926 15.5724C55.7024 15.4547 55.8121 15.337 55.9252 15.2157C56.0809 15.0655 56.2132 14.9386 56.4004 14.8353C56.4291 14.8137 56.4574 14.7915 56.485 14.7684C56.596 14.6826 56.7195 14.6249 56.8454 14.5646C56.921 14.5288 56.921 14.5288 56.9808 14.4901C57.0603 14.4442 57.1427 14.4145 57.2289 14.3835C57.2615 14.3717 57.2941 14.3598 57.3267 14.3479C57.3429 14.342 57.3591 14.3361 57.3758 14.33C57.4165 14.3143 57.4561 14.296 57.4954 14.2773C57.6352 14.2165 57.7875 14.1905 57.9357 14.1577C57.9602 14.1522 57.9602 14.1522 57.9851 14.1466C58.2629 14.0846 58.5406 14.034 58.8236 14.0031C58.8516 14 58.8796 13.9969 58.9084 13.9937C59.1188 13.9743 59.3235 13.9793 59.5363 13.9793Z" fill="white"/>
<path d="M17.8877 14.1702C19.001 14.1702 20.1142 14.1702 21.2612 14.1702C21.2612 17.9913 21.2612 21.8125 21.2612 25.7494C20.148 25.7494 19.0347 25.7494 17.8877 25.7494C17.8877 21.9282 17.8877 18.1071 17.8877 14.1702Z" fill="white"/>
<path d="M20.7648 9.10547C20.7875 9.11809 20.8103 9.13072 20.8337 9.14373C20.9453 9.20739 21.0334 9.2719 21.1211 9.36701C21.1451 9.38613 21.1691 9.40526 21.1939 9.42496C21.2668 9.48861 21.3081 9.54633 21.3587 9.62855C21.3752 9.65122 21.3752 9.65122 21.392 9.67434C21.6646 10.0541 21.7213 10.534 21.6548 10.9887C21.6385 11.0754 21.619 11.1601 21.5963 11.2454C21.5863 11.2831 21.5863 11.2831 21.5762 11.3215C21.5248 11.4945 21.448 11.6507 21.3349 11.7922C21.3192 11.7922 21.3036 11.7922 21.2874 11.7922C21.2786 11.818 21.2786 11.818 21.2696 11.8442C21.13 12.1587 20.74 12.3615 20.4363 12.4811C20.2948 12.5269 20.1512 12.5531 20.0045 12.5769C19.9863 12.58 19.9681 12.5832 19.9494 12.5864C19.5248 12.6472 18.9926 12.6225 18.6028 12.4342C18.5867 12.4264 18.5705 12.4186 18.5538 12.4105C18.4981 12.3833 18.4428 12.3554 18.3875 12.3272C18.3697 12.3182 18.3518 12.3091 18.3334 12.2998C18.3084 12.2865 18.3084 12.2865 18.2828 12.273C18.2678 12.2651 18.2528 12.2572 18.2373 12.2491C18.1904 12.2137 18.1759 12.1778 18.1515 12.1251C18.1202 12.1084 18.0885 12.0927 18.0564 12.0775C17.9518 11.999 17.889 11.9279 17.8189 11.816C17.7961 11.7882 17.7734 11.7605 17.7506 11.7328C17.4721 11.3616 17.4092 10.8564 17.4698 10.4062C17.5427 9.99578 17.7372 9.65538 18.0327 9.36701C18.0518 9.3469 18.0709 9.3268 18.0906 9.30608C18.1996 9.20227 18.3246 9.13468 18.4588 9.06831C18.4865 9.05455 18.5141 9.04079 18.5426 9.02661C19.204 8.71138 20.1294 8.73191 20.7648 9.10547Z" fill="white"/>
<path d="M74.4616 35.06C74.5005 35.0932 74.5005 35.0932 74.548 35.1645C74.5759 35.18 74.5759 35.18 74.6044 35.1957C74.6668 35.2359 74.6668 35.2359 74.7618 35.3785C74.7697 35.1824 74.7775 34.9862 74.7856 34.7841C74.958 34.7841 75.1305 34.7841 75.3082 34.7841C75.3104 35.2626 75.3121 35.7411 75.3132 36.2196C75.3136 36.4418 75.3143 36.6641 75.3154 36.8863C75.3163 37.0802 75.317 37.2741 75.3172 37.468C75.3173 37.5705 75.3176 37.673 75.3183 37.7754C75.3254 38.8598 75.3254 38.8598 75.0707 39.2779C75.055 39.2779 75.0393 39.2779 75.0231 39.2779C75.018 39.3073 75.018 39.3073 75.0127 39.3373C74.9662 39.4416 74.9028 39.4927 74.8162 39.5649C74.7613 39.6096 74.7613 39.6096 74.7139 39.6605C74.4079 39.9553 73.8825 39.9999 73.4812 39.9987C73.4274 39.9986 73.3737 39.9992 73.32 39.9998C72.9778 40.0013 72.6603 39.946 72.3386 39.8248C72.3178 39.8172 72.2971 39.8096 72.2757 39.8017C72.0452 39.7138 71.8489 39.5888 71.6496 39.4443C71.6611 39.3351 71.6842 39.2752 71.755 39.1917C71.809 39.1275 71.8527 39.0693 71.8872 38.9926C71.9963 39.0094 72.0805 39.0759 72.1648 39.1436C72.5857 39.4606 73.2221 39.5388 73.7299 39.4755C74.0538 39.4194 74.3545 39.289 74.548 39.0164C74.7792 38.6498 74.7447 38.2446 74.7381 37.8275C74.7181 37.8495 74.7181 37.8495 74.6978 37.872C74.3979 38.189 74.025 38.3995 73.5803 38.4258C72.9696 38.4345 72.9696 38.4345 72.6949 38.3506C72.6714 38.3445 72.6478 38.3385 72.6235 38.3322C72.2295 38.22 71.8848 37.925 71.6621 37.5852C71.4036 37.1083 71.3339 36.5426 71.4833 36.0205C71.5583 35.7888 71.6505 35.5835 71.8159 35.4023C71.8322 35.3827 71.8485 35.3631 71.8653 35.3429C71.994 35.1902 71.994 35.1902 72.101 35.1645C72.1088 35.141 72.1167 35.1175 72.1248 35.0932C72.77 34.5977 73.8017 34.6034 74.4616 35.06ZM72.7662 35.3547C72.7465 35.3627 72.7268 35.3707 72.7064 35.379C72.4535 35.4916 72.228 35.7022 72.101 35.9492C72.0618 36.0586 72.0317 36.1687 72.006 36.282C72.0014 36.3017 71.9969 36.3213 71.9922 36.3416C71.9542 36.5669 71.9788 36.7781 72.0357 36.9968C72.043 37.0252 72.043 37.0252 72.0504 37.0542C72.0824 37.1688 72.1242 37.2555 72.196 37.352C72.2092 37.3713 72.2224 37.3905 72.236 37.4104C72.4796 37.7378 72.795 37.8742 73.1868 37.9367C73.3842 37.9564 73.5699 37.9371 73.764 37.8988C73.7873 37.8945 73.8106 37.8901 73.8346 37.8856C74.0056 37.8468 74.1276 37.7709 74.2629 37.6611C74.2833 37.6448 74.3037 37.6286 74.3247 37.6119C74.6216 37.3614 74.7468 37.0669 74.7856 36.6862C74.8074 36.4111 74.7651 36.1373 74.6193 35.9016C74.6078 35.8821 74.5964 35.8626 74.5846 35.8425C74.3823 35.5246 74.0738 35.3325 73.7119 35.2474C73.3835 35.1833 73.0736 35.2219 72.7662 35.3547Z" fill="white"/>
<path d="M63.147 33.2393C63.3273 33.2393 63.5076 33.2393 63.6934 33.2393C63.6934 34.9968 63.6934 36.7544 63.6934 38.5652C63.5209 38.5652 63.3484 38.5652 63.1707 38.5652C63.1629 38.3612 63.155 38.1572 63.147 37.947C63.1156 37.9863 63.0842 38.0255 63.0519 38.0659C63.0128 38.106 62.9732 38.1457 62.9332 38.1848C62.9136 38.2064 62.894 38.228 62.8738 38.2502C62.8112 38.3065 62.7781 38.3204 62.6956 38.3275C62.6956 38.3432 62.6956 38.3588 62.6956 38.375C62.492 38.4778 62.3074 38.5644 62.0779 38.589C62.051 38.5929 62.051 38.5929 62.0235 38.5968C61.5636 38.6586 61.1218 38.5882 60.7237 38.3512C60.7048 38.3409 60.6859 38.3306 60.6665 38.3199C60.4835 38.2154 60.3015 38.0629 60.2011 37.8757C60.2011 37.86 60.2011 37.8443 60.2011 37.8282C60.1776 37.8203 60.154 37.8125 60.1298 37.8044C60.0991 37.747 60.073 37.6918 60.0481 37.632C60.0409 37.6149 60.0336 37.5979 60.0261 37.5803C59.7895 37.0129 59.7658 36.4088 59.9947 35.8354C60.0702 35.6551 60.1563 35.4939 60.2961 35.3554C60.3322 35.3123 60.3677 35.2688 60.403 35.2252C60.4386 35.1889 60.4386 35.1889 60.5099 35.1652C60.5279 35.1468 60.5459 35.1284 60.5644 35.1094C60.864 34.8152 61.3837 34.7305 61.7833 34.7314C62.2522 34.7382 62.6743 34.9047 63.0044 35.2365C63.0632 35.3071 63.0632 35.3071 63.1232 35.3792C63.135 34.3199 63.135 34.3199 63.147 33.2393ZM61.1514 35.3792C61.1164 35.395 61.1164 35.395 61.0806 35.4111C60.7598 35.587 60.5665 35.8873 60.4611 36.2275C60.349 36.6217 60.3926 37.0608 60.5708 37.4294C60.622 37.5182 60.6751 37.5898 60.7475 37.6617C60.7613 37.6805 60.7751 37.6994 60.7893 37.7187C60.8537 37.7936 60.9224 37.8392 61.0058 37.8906C61.0272 37.9042 61.0272 37.9042 61.049 37.9181C61.4056 38.1425 61.798 38.1518 62.2028 38.0655C62.3186 38.0351 62.407 37.9896 62.5055 37.9233C62.5218 37.9142 62.538 37.9052 62.5547 37.8959C62.8487 37.7297 63.0198 37.4078 63.1132 37.0923C63.194 36.781 63.2012 36.4407 63.0757 36.14C63.0669 36.1189 63.0669 36.1189 63.058 36.0973C62.889 35.7005 62.6406 35.4705 62.2442 35.3078C61.8688 35.1605 61.5102 35.2075 61.1514 35.3792Z" fill="white"/>
<path d="M48.1327 33.5247C48.3287 33.5247 48.5247 33.5247 48.7266 33.5247C48.7266 34.2622 48.7266 34.9998 48.7266 35.7597C49.738 35.7597 50.7493 35.7597 51.7913 35.7597C51.7913 35.0221 51.7913 34.2846 51.7913 33.5247C51.9716 33.5247 52.1519 33.5247 52.3377 33.5247C52.3377 35.1881 52.3377 36.8515 52.3377 38.5653C52.1574 38.5653 51.9771 38.5653 51.7913 38.5653C51.7913 37.8042 51.7913 37.0431 51.7913 36.259C50.78 36.259 49.7686 36.259 48.7266 36.259C48.7266 37.0201 48.7266 37.7812 48.7266 38.5653C48.5306 38.5653 48.3346 38.5653 48.1327 38.5653C48.1327 36.9019 48.1327 35.2385 48.1327 33.5247Z" fill="white"/>
<path d="M4.7522 0C4.94035 0 5.12851 0 5.32237 0C5.33021 0.690474 5.33805 1.38095 5.34613 2.09235C5.37749 2.04527 5.40885 1.99819 5.44116 1.94969C5.49983 1.89528 5.56516 1.85204 5.63121 1.80703C5.64454 1.797 5.65786 1.78698 5.67158 1.77665C6.06205 1.50179 6.60911 1.4473 7.06704 1.52607C7.45992 1.61618 7.79375 1.77527 8.0177 2.12476C8.26227 2.54199 8.27858 2.93549 8.27522 3.40805C8.27509 3.46355 8.27499 3.51904 8.27492 3.57454C8.27465 3.71956 8.27395 3.86457 8.27316 4.00958C8.27242 4.15798 8.2721 4.30638 8.27174 4.45478C8.27098 4.74518 8.26973 5.03557 8.26826 5.32597C8.08795 5.32597 7.90763 5.32597 7.72185 5.32597C7.72114 5.22557 7.72114 5.22557 7.72042 5.12315C7.71883 4.90117 7.71698 4.6792 7.71502 4.45723C7.71383 4.32274 7.71273 4.18826 7.71182 4.05377C7.71094 3.9238 7.70984 3.79384 7.70859 3.66388C7.70815 3.61448 7.70779 3.56508 7.70751 3.51567C7.70511 2.85721 7.70511 2.85721 7.39964 2.29147C7.15528 2.07206 6.81642 2.01082 6.49594 2.02473C6.19082 2.06058 5.91743 2.1344 5.69905 2.35881C5.65497 2.40144 5.65497 2.40144 5.60746 2.40144C5.60106 2.41891 5.59466 2.43638 5.58806 2.45438C5.56095 2.51797 5.52923 2.56762 5.49016 2.62435C5.31082 2.9243 5.33502 3.29566 5.33397 3.63328C5.33357 3.68234 5.33314 3.73141 5.33268 3.78048C5.33156 3.90841 5.33084 4.03634 5.33022 4.16427C5.32951 4.2953 5.3284 4.42633 5.32733 4.55736C5.3253 4.81356 5.32373 5.06976 5.32237 5.32597C5.13421 5.32597 4.94606 5.32597 4.7522 5.32597C4.7522 3.5684 4.7522 1.81083 4.7522 0Z" fill="white"/>
<path d="M12.2445 1.8875C12.2575 1.90003 12.2705 1.91257 12.2838 1.92548C12.3064 1.94706 12.3289 1.96864 12.3521 1.99087C12.3688 2.00852 12.3855 2.02618 12.4026 2.04437C12.4168 2.05761 12.431 2.07085 12.4457 2.08449C12.4739 2.1157 12.4739 2.1157 12.4739 2.16325C12.4974 2.1711 12.5209 2.17894 12.5452 2.18703C12.5731 2.22613 12.5731 2.22613 12.6001 2.27767C12.6102 2.29686 12.6203 2.31605 12.6307 2.33582C12.6472 2.36809 12.6472 2.36809 12.6639 2.40102C12.6764 2.42498 12.6888 2.44895 12.7016 2.47365C12.898 2.85814 12.9015 3.16869 12.9015 3.61363C11.8588 3.61363 10.8161 3.61363 9.74181 3.61363C9.85135 4.04906 9.85135 4.04906 10.1011 4.40717C10.1169 4.42207 10.1326 4.43696 10.1488 4.45231C10.1708 4.47263 10.1708 4.47263 10.1932 4.49336C10.2044 4.50519 10.2156 4.51702 10.2271 4.52921C10.3784 4.67278 10.5627 4.75668 10.7634 4.80246C10.7807 4.8073 10.7981 4.81214 10.816 4.81713C11.1909 4.91078 11.6547 4.87486 11.9869 4.67596C12.0821 4.61195 12.1717 4.54266 12.2601 4.46958C12.2996 4.43784 12.3392 4.40613 12.3789 4.37448C12.4175 4.41653 12.4561 4.45864 12.4947 4.50079C12.5056 4.51267 12.5165 4.52455 12.5278 4.53678C12.5781 4.59185 12.6225 4.64513 12.6639 4.70735C12.6577 4.80044 12.6078 4.85555 12.5452 4.92134C12.081 5.28914 11.5383 5.42193 10.9534 5.3731C10.3798 5.30242 9.96421 5.0898 9.57978 4.65097C9.55176 4.61224 9.55176 4.61224 9.55176 4.56469C9.53608 4.56469 9.5204 4.56469 9.50424 4.56469C9.23174 4.00045 9.0919 3.37628 9.29043 2.7546C9.31903 2.68238 9.35108 2.61332 9.38546 2.54368C9.39691 2.51876 9.40836 2.49384 9.42016 2.46817C9.53886 2.22623 9.71576 1.98643 9.95563 1.85415C9.98636 1.83193 10.017 1.80963 10.0477 1.78728C10.6741 1.36615 11.6646 1.38196 12.2445 1.8875ZM10.2244 2.27322C10.1978 2.2996 10.1715 2.32631 10.1457 2.35346C10.1251 2.37161 10.1045 2.38975 10.0833 2.40845C9.89098 2.62627 9.78908 2.90181 9.74181 3.18565C10.612 3.18565 11.4823 3.18565 12.3789 3.18565C12.3384 2.94249 12.305 2.81584 12.1888 2.61501C12.1775 2.59533 12.1661 2.57565 12.1545 2.55538C12.0735 2.42477 11.9768 2.32891 11.8562 2.23458C11.8341 2.21651 11.8341 2.21651 11.8116 2.19808C11.3469 1.87689 10.654 1.90317 10.2244 2.27322Z" fill="white"/>
<path d="M56.7329 35.2136C57.1127 35.5664 57.3071 36.0565 57.3314 36.5702C57.3416 36.9802 57.2655 37.5002 56.9927 37.8275C56.977 37.8275 56.9614 37.8275 56.9452 37.8275C56.9401 37.8482 56.935 37.8689 56.9298 37.8902C56.8918 37.9849 56.8383 38.0416 56.7641 38.1084C56.7505 38.1207 56.737 38.133 56.7231 38.1456C56.3167 38.5005 55.7928 38.648 55.2584 38.6122C55.2431 38.6112 55.2278 38.6102 55.2121 38.6092C54.7172 38.5747 54.2703 38.386 53.928 38.0178C53.8771 37.9566 53.831 37.8928 53.7855 37.8275C53.7699 37.8061 53.7544 37.7846 53.7384 37.7624C53.4623 37.3537 53.3916 36.7991 53.476 36.3178C53.4907 36.2422 53.5072 36.167 53.5242 36.0919C53.5278 36.0728 53.5315 36.0538 53.5353 36.0342C53.6076 35.6868 53.883 35.3217 54.1641 35.114C54.2369 35.0695 54.2369 35.0695 54.2844 35.0695C54.2844 35.0538 54.2844 35.0381 54.2844 35.0219C54.9862 34.5031 56.1027 34.6856 56.7329 35.2136ZM54.7595 35.3786C54.7417 35.3862 54.7238 35.3938 54.7054 35.4016C54.5788 35.458 54.4966 35.5392 54.4032 35.6401C54.3831 35.6582 54.363 35.6764 54.3423 35.6951C54.0195 36.0513 54.0062 36.4652 54.019 36.921C54.0379 37.2675 54.2389 37.5677 54.4865 37.8001C54.7817 38.0553 55.1343 38.1365 55.5198 38.1129C55.9027 38.0681 56.1839 37.9311 56.4411 37.6364C56.477 37.5904 56.5096 37.5437 56.5413 37.4947C56.552 37.4784 56.5628 37.4621 56.5738 37.4453C56.6601 37.3032 56.698 37.1572 56.7314 36.9954C56.738 36.9675 56.738 36.9675 56.7448 36.9391C56.8073 36.5624 56.7494 36.1486 56.5265 35.8363C56.5169 35.8236 56.5073 35.811 56.4973 35.798C56.4701 35.759 56.4701 35.759 56.448 35.7114C56.4188 35.6568 56.3867 35.6263 56.3394 35.5866C56.3249 35.5742 56.3105 35.5618 56.2956 35.5491C56.2578 35.5166 56.2578 35.5166 56.2087 35.5212C56.197 35.4859 56.197 35.4859 56.185 35.4499C55.7209 35.1809 55.2452 35.1465 54.7595 35.3786Z" fill="white"/>
<path d="M77.663 34.6348C77.6931 34.6349 77.7232 34.6351 77.7542 34.6352C78.133 34.6399 78.5722 34.6624 78.8984 34.88C78.8837 34.9449 78.8688 35.0098 78.8538 35.0747C78.8497 35.093 78.8456 35.1113 78.8413 35.1301C78.8194 35.2248 78.7955 35.3139 78.7558 35.4031C78.6463 35.3859 78.5483 35.348 78.4455 35.308C78.0624 35.1598 77.613 35.1441 77.2116 35.2367C77.0707 35.3046 76.9762 35.3832 76.9028 35.522C76.8581 35.6562 76.8638 35.7861 76.9132 35.9188C77.0239 36.1403 77.3226 36.2466 77.5439 36.3229C77.6252 36.3492 77.707 36.3738 77.7888 36.3985C78.1141 36.4983 78.4537 36.6479 78.7083 36.8773C78.7299 36.8964 78.7514 36.9155 78.7737 36.9352C78.9818 37.1725 79.0502 37.446 79.0459 37.758C79.0255 38.0446 78.9102 38.3218 78.6989 38.5198C78.2654 38.8396 77.7759 38.8372 77.2591 38.8269C77.2423 38.8266 77.2255 38.8263 77.2081 38.826C76.894 38.8187 76.4256 38.7773 76.1901 38.5416C76.2119 38.4667 76.2343 38.3919 76.2569 38.3172C76.2631 38.2959 76.2693 38.2745 76.2757 38.2525C76.285 38.2221 76.285 38.2221 76.2945 38.191C76.3001 38.1722 76.3057 38.1534 76.3114 38.134C76.3184 38.1195 76.3254 38.1049 76.3326 38.0899C76.4148 38.0625 76.4319 38.0701 76.5108 38.0985C76.5317 38.1059 76.5527 38.1132 76.5743 38.1208C76.5964 38.1287 76.6186 38.1367 76.6415 38.1449C76.8146 38.2046 76.9812 38.2601 77.1641 38.2801C77.1872 38.2832 77.2103 38.2863 77.2341 38.2896C77.5501 38.3245 77.9005 38.3069 78.1604 38.1077C78.1766 38.094 78.1928 38.0802 78.2094 38.0661C78.2251 38.0661 78.2408 38.0661 78.2569 38.0661C78.2638 38.0489 78.2707 38.0318 78.2777 38.0141C78.2941 37.9731 78.3112 37.9324 78.3295 37.8922C78.3884 37.7248 78.3653 37.5171 78.3045 37.3528C78.2629 37.3221 78.2629 37.3221 78.2094 37.3052C78.191 37.2878 78.1725 37.2703 78.1535 37.2523C78.0419 37.1573 77.9037 37.1145 77.7684 37.063C77.7417 37.0526 77.7151 37.0422 77.6876 37.0315C77.638 37.0122 77.5884 36.993 77.5387 36.9739C77.4958 36.9574 77.453 36.9404 77.4105 36.9228C77.35 36.8979 77.35 36.8979 77.2666 36.8802C76.9139 36.7938 76.5663 36.6039 76.3608 36.2992C76.1967 36.0214 76.167 35.7117 76.2294 35.3955C76.2509 35.3304 76.2763 35.2732 76.3088 35.2129C76.3249 35.1823 76.3249 35.1823 76.3413 35.151C76.4943 34.8989 76.7691 34.7676 77.0453 34.6898C77.2511 34.6446 77.4528 34.6339 77.663 34.6348Z" fill="white"/>
<path d="M69.4637 34.8078C69.4794 34.8129 69.4951 34.818 69.5113 34.8233C69.9062 34.9558 70.1507 35.1742 70.3427 35.5448C70.4558 35.7729 70.4687 36.0359 70.4669 36.2863C70.4669 36.3112 70.4669 36.336 70.4669 36.3616C70.4669 36.4427 70.4665 36.5237 70.4661 36.6048C70.466 36.6614 70.466 36.718 70.4659 36.7747C70.4657 36.9229 70.4653 37.0711 70.4647 37.2193C70.4642 37.3709 70.464 37.5225 70.4638 37.6741C70.4633 37.9709 70.4624 38.2677 70.4615 38.5645C70.289 38.5645 70.1165 38.5645 69.9388 38.5645C69.9385 38.4955 69.9381 38.4265 69.9378 38.3555C69.9366 38.1267 69.935 37.8979 69.9332 37.6691C69.9322 37.5305 69.9312 37.3918 69.9306 37.2532C69.93 37.1192 69.929 36.9853 69.9278 36.8513C69.9274 36.8004 69.9271 36.7495 69.927 36.6986C69.9255 36.2478 69.8997 35.8483 69.5742 35.5036C69.3265 35.2918 68.9958 35.2352 68.6797 35.2595C68.4675 35.2884 68.2891 35.3493 68.0987 35.4448C68.0382 35.4735 68.0382 35.4735 67.9907 35.4735C67.9858 35.4868 67.9809 35.5 67.9759 35.5136C67.9432 35.5686 67.9432 35.5686 67.8761 35.6204C67.7914 35.6897 67.7482 35.7668 67.7012 35.8643C67.6934 35.8792 67.6855 35.894 67.6775 35.9093C67.5219 36.2234 67.5283 36.565 67.5272 36.9066C67.5268 36.9547 67.5263 37.0027 67.5259 37.0507C67.5248 37.176 67.5241 37.3013 67.5234 37.4267C67.5227 37.555 67.5216 37.6833 67.5205 37.8116C67.5185 38.0626 67.5169 38.3135 67.5156 38.5645C67.3431 38.5645 67.1706 38.5645 66.9929 38.5645C66.9929 37.3169 66.9929 36.0694 66.9929 34.784C67.1654 34.784 67.3379 34.784 67.5156 34.784C67.5234 34.9645 67.5313 35.1449 67.5393 35.3309C67.5785 35.2838 67.6177 35.2367 67.6581 35.1882C68.1017 34.7417 68.8779 34.6126 69.4637 34.8078Z" fill="white"/>
<path d="M0 0.285645C1.34062 0.285645 2.68124 0.285645 4.06248 0.285645C4.06248 0.450417 4.06248 0.615189 4.06248 0.784954C3.48233 0.784954 2.90218 0.784954 2.30445 0.784954C2.30445 2.2836 2.30445 3.78224 2.30445 5.32629C2.12413 5.32629 1.94381 5.32629 1.75803 5.32629C1.75803 3.82765 1.75803 2.32901 1.75803 0.784954C1.17788 0.784954 0.597731 0.784954 0 0.784954C0 0.620182 0 0.45541 0 0.285645Z" fill="white"/>
<path d="M58.3239 33.2393C58.4963 33.2393 58.6688 33.2393 58.8465 33.2393C58.8465 34.9968 58.8465 36.7544 58.8465 38.5652C58.674 38.5652 58.5016 38.5652 58.3239 38.5652C58.3239 36.8077 58.3239 35.0501 58.3239 33.2393Z" fill="white"/>
<path d="M65.0723 34.7842C65.2447 34.7842 65.4172 34.7842 65.5949 34.7842C65.5949 36.0317 65.5949 37.2793 65.5949 38.5647C65.4224 38.5647 65.25 38.5647 65.0723 38.5647C65.0723 37.3171 65.0723 36.0695 65.0723 34.7842Z" fill="white"/>
<path d="M65.5965 33.2867C65.6938 33.3787 65.742 33.4676 65.7465 33.6017C65.7449 33.743 65.6896 33.8206 65.6055 33.9323C65.5255 33.9945 65.4491 33.9944 65.3515 33.994C65.3334 33.9941 65.3153 33.9941 65.2966 33.9941C65.2085 33.9907 65.1574 33.9843 65.0825 33.9352C64.9715 33.807 64.9468 33.7099 64.9483 33.5427C64.9601 33.4286 65.0154 33.3657 65.0976 33.2912C65.2407 33.2061 65.4511 33.2139 65.5965 33.2867Z" fill="white"/>
</svg>
